<svg xmlns="http://www.w3.org/2000/svg" viewBox="0 0 61.5 61.5"><defs><style>.cls-1{fill:#ba5df4;}.cls-2{fill:#67f6bf;}</style></defs><title>behance</title><g id="Layer_2" data-name="Layer 2"><g id="Layer_1-2" data-name="Layer 1"><polygon class="cls-1" points="51.47 0 44.35 0 17.08 0 9.97 0 0 9.97 0 51.53 9.97 61.5 17.08 61.5 44.35 61.5 51.47 61.5 61.5 51.47 61.5 10.03 51.47 0"/><path class="cls-2" d="M23,43.38H10.69V18.25c0-.13,0-.13.13-.13H20.9l2.59,0c.26,0,.52,0,.78.05l1.32.19A7.59,7.59,0,0,1,28,19.2a4.93,4.93,0,0,1,2.24,2.54A6.66,6.66,0,0,1,30.61,24a7.27,7.27,0,0,1-.1,1.74,4.92,4.92,0,0,1-1.82,3,7.06,7.06,0,0,1-1.4.89l-.09.06,0,0,.1,0a8.37,8.37,0,0,1,1.54.65A5.62,5.62,0,0,1,31,32.47a7.21,7.21,0,0,1,.85,3.21c0,.32,0,.63,0,1a5.82,5.82,0,0,1-.15,1.11,6.24,6.24,0,0,1-2.22,3.63A8.59,8.59,0,0,1,26.17,43a11.39,11.39,0,0,1-1.63.3l-.88.08-.54,0Zm-6.82-7.79V39l.06.06a.33.33,0,0,0,.1,0h5.4A10,10,0,0,0,23.23,39a4.41,4.41,0,0,0,1.19-.29,2.87,2.87,0,0,0,1.47-1.21,3.06,3.06,0,0,0,.4-1.47,4.81,4.81,0,0,0-.13-1.51,2.72,2.72,0,0,0-.8-1.44,3.32,3.32,0,0,0-.95-.58,5.3,5.3,0,0,0-2.08-.39h-6c-.11,0-.11,0-.11.11Zm3-7.24h2.59q.32,0,.63,0A3.69,3.69,0,0,0,23.77,28a2.46,2.46,0,0,0,1-.8,2.78,2.78,0,0,0,.49-1.58,5.49,5.49,0,0,0,0-.81A2,2,0,0,0,25,24a2.54,2.54,0,0,0-1.66-1.3,7.1,7.1,0,0,0-1.89-.24c-1.7,0-3.4,0-5.1,0-.12,0-.12,0-.12.11v5.73c0,.1,0,.1.11.1Z"/><path class="cls-2" d="M41.81,43.38l-.08,0c-.2,0-.4,0-.59,0s-.58,0-.87-.08a9.68,9.68,0,0,1-1.77-.41,8.41,8.41,0,0,1-2.82-1.57,8.27,8.27,0,0,1-1.79-2.2A9.51,9.51,0,0,1,32.78,36c-.06-.34-.1-.68-.14-1a10.7,10.7,0,0,1,0-1.7c0-.38.06-.75.1-1.12a8.84,8.84,0,0,1,.46-1.89,9,9,0,0,1,1.7-3,8.85,8.85,0,0,1,2.53-2,8.61,8.61,0,0,1,2.08-.8c.4-.09.79-.17,1.19-.22a10.65,10.65,0,0,1,1.6-.07,9.64,9.64,0,0,1,2.72.47,8.31,8.31,0,0,1,2.33,1.29,8.7,8.7,0,0,1,2.62,3.52,11,11,0,0,1,.71,2.5c.06.41.11.82.14,1.23s0,.94,0,1.41c0,.12,0,.23,0,.34s0,.09-.09.09,0,0-.07,0h-13v.09A6.92,6.92,0,0,0,38,37.33a3.5,3.5,0,0,0,2.52,2.14,5.68,5.68,0,0,0,1.16.16,4.9,4.9,0,0,0,1.15,0,4.27,4.27,0,0,0,2-.84,4,4,0,0,0,.88-.91,3.33,3.33,0,0,0,.25-.5c0-.05.05-.07.1-.07h4.31a.15.15,0,0,1,0,.07,10.91,10.91,0,0,1-1.3,2.71,7,7,0,0,1-2.93,2.46,9,9,0,0,1-2.46.72c-.35.05-.71.08-1.07.11a5.06,5.06,0,0,1-.55,0l-.08,0Zm-.12-11.56h4c.07,0,.09,0,.07-.08s-.06-.32-.1-.47a5.93,5.93,0,0,0-.9-2.08,2.85,2.85,0,0,0-1.15-.94A3.92,3.92,0,0,0,42,27.91a6.33,6.33,0,0,0-.87,0,3.67,3.67,0,0,0-1.52.45,4,4,0,0,0-1,.81,4.46,4.46,0,0,0-1,2.49c0,.13,0,.13.12.13Z"/><path class="cls-2" d="M41.84,22.22h-5c-.12,0-.12,0-.12-.12V19.51c0-.11,0-.11.11-.11h10c.11,0,.11,0,.11.11V22.1c0,.11,0,.12-.11.12Z"/></g></g></svg>