<svg xmlns="http://www.w3.org/2000/svg" viewBox="0 0 61.5 61.5"><defs><style>.cls-1{fill:#67f6bf;}.cls-2{fill:#ba5df4;}</style></defs><title>insta</title><g id="Layer_2" data-name="Layer 2"><g id="Layer_1-2" data-name="Layer 1"><polygon class="cls-1" points="51.47 0 44.35 0 17.08 0 9.97 0 0 9.97 0 51.53 9.97 61.5 17.08 61.5 44.35 61.5 51.47 61.5 61.5 51.47 61.5 10.03 51.47 0"/><path class="cls-2" d="M21.59,12H39.91c.38.06.77.1,1.15.19A10.22,10.22,0,0,1,49.2,19.9c.15.54.21,1.12.31,1.68V39.9c0,.13,0,.26-.07.39a18.61,18.61,0,0,1-.79,2.91,10,10,0,0,1-9.54,6.27c-5.57.08-11.14,0-16.71,0a9.93,9.93,0,0,1-5.91-1.84A10.17,10.17,0,0,1,12,38.94q0-8.2,0-16.41a9.31,9.31,0,0,1,.19-2.11,10.17,10.17,0,0,1,7.71-8.13C20.46,12.14,21,12.08,21.59,12ZM46.18,30.74V22.61a7.48,7.48,0,0,0-.37-2.52,7,7,0,0,0-6.88-4.78c-5.45,0-10.91,0-16.37,0a7.77,7.77,0,0,0-2.44.37,7,7,0,0,0-4.8,6.85V38.92a7.23,7.23,0,0,0,.39,2.48,7,7,0,0,0,6.81,4.76c5.49,0,11,0,16.48,0a6.91,6.91,0,0,0,5.89-3,7.06,7.06,0,0,0,1.29-4.27Z"/><path class="cls-2" d="M40.42,30.73a9.67,9.67,0,1,1-9.68-9.66A9.71,9.71,0,0,1,40.42,30.73Zm-3.34,0a6.33,6.33,0,1,0-6.32,6.34A6.32,6.32,0,0,0,37.08,30.73Z"/><path class="cls-2" d="M40.88,18.26a2.43,2.43,0,1,1-2.5,2.4A2.44,2.44,0,0,1,40.88,18.26Z"/></g></g></svg>