<svg xmlns="http://www.w3.org/2000/svg" viewBox="0 0 92.18 26.96"><defs><style>.cls-1{fill:#ba5df4;}.cls-2{fill:#67f6bf;}</style></defs><title>last</title><g id="Layer_2" data-name="Layer 2"><g id="Layer_1-2" data-name="Layer 1"><polygon class="cls-1" points="92.18 0 10.03 0 0 10.03 0 16.93 10.03 26.96 92.18 26.96 92.18 0"/><path class="cls-2" d="M42.66,5.6h3.78V18.27h5.63v3.1H42.66Z"/><path class="cls-2" d="M53.57,21.37,54.26,5.6h8l.71,15.77H59.16l-.11-4.62H57.46l-.11,4.62Zm5.33-7.74-.17-4.94h-1l-.17,4.94Z"/><path class="cls-2" d="M64.44,10.86V5.6h9.41v5.5H70.07V8.69H68.22v1.85l5.63,5.54v5.29H64.44v-5.5h3.78v2.4h1.85V16.43Z"/><path class="cls-2" d="M75.57,8.69V5.6H85V8.69H82.14V21.37H78.36V8.69Z"/></g></g></svg>