<svg xmlns="http://www.w3.org/2000/svg" viewBox="0 0 61.5 61.5"><defs><style>.cls-1{fill:#fde06e;}.cls-2{fill:#ba5df4;}</style></defs><title>linkedin</title><g id="Layer_2" data-name="Layer 2"><g id="Layer_1-2" data-name="Layer 1"><polygon class="cls-1" points="51.47 0 44.35 0 17.08 0 9.97 0 0 9.97 0 51.53 9.97 61.5 17.08 61.5 44.35 61.5 51.47 61.5 61.5 51.47 61.5 10.03 51.47 0"/><path class="cls-2" d="M32.68,28.18a2.12,2.12,0,0,1,.11-.21c1.84-2.48,4.38-3,7.22-2.42s4.45,2.56,5.11,5.29a13.6,13.6,0,0,1,.36,3.05c.05,3.39,0,6.79,0,10.18,0,.61-.16.8-.78.78-1.65,0-3.31,0-5,0-.64,0-.78-.21-.77-.8q0-4.9,0-9.81a6.72,6.72,0,0,0-.24-1.66c-.7-2.56-3.61-2.52-4.93-1.35a3.87,3.87,0,0,0-1.27,3.08c0,3.29,0,6.58,0,9.87,0,.55-.16.68-.68.67-1.72,0-3.43,0-5.15,0-.45,0-.59-.13-.59-.59q0-9,0-17.92c0-.47.18-.6.6-.59,1.74,0,3.48,0,5.21,0,.48,0,.64.18.61.65s0,1.15,0,1.73Z"/><path class="cls-2" d="M16.35,35.35c0-3,0-5.89,0-8.84,0-.57.15-.78.74-.77,1.68,0,3.35,0,5,0,.53,0,.74.14.74.72q0,8.84,0,17.67c0,.54-.15.73-.72.72-1.69,0-3.39,0-5.08,0-.58,0-.72-.19-.71-.73C16.36,41.2,16.35,38.27,16.35,35.35Z"/><path class="cls-2" d="M23.22,20.07a3.42,3.42,0,0,1-3.66,3.31,3.37,3.37,0,1,1,.07-6.73A3.37,3.37,0,0,1,23.22,20.07Z"/></g></g></svg>