<svg xmlns="http://www.w3.org/2000/svg" viewBox="0 0 92.18 26.96"><defs><style>.cls-1{fill:#ba5df4;}.cls-2{fill:#67f6bf;}</style></defs><title>next</title><g id="Layer_2" data-name="Layer 2"><g id="Layer_1-2" data-name="Layer 1"><polygon class="cls-1" points="0 26.96 82.15 26.96 92.18 16.93 92.18 10.03 82.15 0 0 0 0 26.96"/><path class="cls-2" d="M7.2,21.37V5.6H11l1.85,6.1V5.6h3.78V21.37H13l-2-6.1v6.1Z"/><path class="cls-2" d="M18.33,21.37V5.6h9.41V8.69H22.11v3.22h4.68V15H22.11v3.26h5.63v3.1Z"/><path class="cls-2" d="M35.09,11.23V5.6h3.78v5.71l-2,2.19,2,2.15v5.72H35.09V15.7L34.4,15h-.47l-.69.69v5.67H29.46V15.65l2-2.15-2-2.19V5.6h3.78v5.63l.69.68h.47Z"/><path class="cls-2" d="M40.59,8.69V5.6H50V8.69H47.16V21.37H43.38V8.69Z"/></g></g></svg>