<?xml version="1.0" encoding="UTF-8"?>
<svg width="182px" height="182px" viewBox="0 0 182 182" version="1.1" xmlns="http://www.w3.org/2000/svg" xmlns:xlink="http://www.w3.org/1999/xlink">
    <!-- Generator: Sketch 63.1 (92452) - https://sketch.com -->
    <title>Group</title>
    <desc>Created with Sketch.</desc>
    <g id="Page-1" stroke="none" stroke-width="1" fill="none" fill-rule="evenodd">
        <g id="Desktop-HD" transform="translate(-1233.000000, -825.000000)">
            <g id="Group" transform="translate(1234.000000, 826.000000)">
                <circle id="Oval" stroke="#BA5DF4" cx="130" cy="10" r="10"></circle>
                <circle id="Oval" stroke="#BA5DF4" cx="10" cy="10" r="10"></circle>
                <circle id="Oval" stroke="#FEE06D" cx="50" cy="10" r="10"></circle>
                <circle id="Oval" stroke="#FEE06D" cx="90" cy="10" r="10"></circle>
                <circle id="Oval" stroke="#FEE06D" cx="170" cy="10" r="10"></circle>
                <circle id="Oval" stroke="#67F6BF" cx="130" cy="50" r="10"></circle>
                <circle id="Oval" stroke="#BA5DF4" cx="10" cy="50" r="10"></circle>
                <circle id="Oval" stroke="#67F6BF" cx="50" cy="50" r="10"></circle>
                <circle id="Oval" stroke="#FEE06D" cx="90" cy="50" r="10"></circle>
                <circle id="Oval" stroke="#FEE06D" cx="170" cy="50" r="10"></circle>
                <circle id="Oval" stroke="#67F6BF" cx="130" cy="90" r="10"></circle>
                <circle id="Oval" stroke="#BA5DF4" cx="10" cy="90" r="10"></circle>
                <circle id="Oval" stroke="#67F6BF" cx="50" cy="90" r="10"></circle>
                <circle id="Oval" stroke="#FEE06D" cx="90" cy="90" r="10"></circle>
                <circle id="Oval" stroke="#BA5DF4" cx="170" cy="90" r="10"></circle>
                <circle id="Oval" stroke="#67F6BF" cx="130" cy="130" r="10"></circle>
                <circle id="Oval" stroke="#67F6BF" cx="10" cy="130" r="10"></circle>
                <circle id="Oval" stroke="#FEE06D" cx="50" cy="130" r="10"></circle>
                <circle id="Oval" stroke="#FEE06D" cx="90" cy="130" r="10"></circle>
                <circle id="Oval" stroke="#BA5DF4" cx="170" cy="130" r="10"></circle>
                <circle id="Oval" stroke="#FEE06D" cx="130" cy="170" r="10"></circle>
                <circle id="Oval" stroke="#67F6BF" cx="10" cy="170" r="10"></circle>
                <circle id="Oval" stroke="#FEE06D" cx="50" cy="170" r="10"></circle>
                <circle id="Oval" stroke="#FEE06D" cx="90" cy="170" r="10"></circle>
                <circle id="Oval" stroke="#BA5DF4" cx="170" cy="170" r="10"></circle>
            </g>
        </g>
    </g>
</svg>