<?xml version="1.0" encoding="utf-8"?>
<!-- Generator: Adobe Illustrator 23.0.4, SVG Export Plug-In . SVG Version: 6.00 Build 0)  -->
<svg version="1.1" id="Layer_1" xmlns="http://www.w3.org/2000/svg" xmlns:xlink="http://www.w3.org/1999/xlink" x="0px" y="0px"
	 viewBox="0 0 100 100" style="enable-background:new 0 0 100 100;" xml:space="preserve">
<style type="text/css">
	.st0{fill:#262626;}
	.st1{fill:#FEE06D;}
</style>
<rect class="st0" width="100" height="100"/>
<g>
	<path class="st1" d="M22.3,70.3c0,0.8-0.2,1.4-0.5,1.7c-0.4,0.4-0.9,0.5-1.7,0.5h-9.2c-0.8,0-1.4-0.2-1.7-0.5
		c-0.4-0.4-0.5-0.9-0.5-1.7V53.8c0-1.2,0.2-2.7,0.6-4.3c0.4-1.6,1-3.5,1.8-5.7l5.4-14.2c0.2-0.7,0.6-1.2,1.2-1.6
		c0.5-0.3,1.2-0.5,2-0.5h16.8c0.8,0,1.4,0.2,2,0.5c0.5,0.3,0.9,0.9,1.2,1.6l5.4,14.2c0.8,2.2,1.4,4.1,1.8,5.7
		c0.4,1.6,0.6,3.1,0.6,4.3v16.5c0,0.8-0.2,1.4-0.5,1.7c-0.4,0.4-0.9,0.5-1.7,0.5h-9.4c-0.8,0-1.4-0.2-1.8-0.5
		c-0.4-0.4-0.6-0.9-0.6-1.7v-8.8H22.3V70.3z M25.9,40.6L23,50.1h9.8l-2.9-9.5c-0.2-0.4-0.3-0.6-0.5-0.8c-0.2-0.2-0.4-0.3-0.7-0.3
		h-1.6c-0.3,0-0.5,0.1-0.7,0.3C26.2,40,26.1,40.2,25.9,40.6z"/>
	<path class="st1" d="M67.2,72.5h-9.7c-0.8,0-1.4-0.2-1.7-0.5c-0.4-0.4-0.5-0.9-0.5-1.7V29.7c0-0.8,0.2-1.4,0.5-1.7
		c0.4-0.4,0.9-0.5,1.7-0.5h19.1c5.7,0,9.5,1.1,11.6,3.4c2.1,2.3,3.1,5.2,3.1,8.8v8c0,3.6-1,6.6-3.1,8.8c-2.1,2.3-6,3.4-11.6,3.4
		h-7.2v10.4c0,0.8-0.2,1.4-0.5,1.7C68.5,72.3,68,72.5,67.2,72.5z M69.3,39.2v9.4h5.6c1.2,0,2-0.3,2.4-0.9c0.4-0.6,0.6-1.3,0.6-2.1
		v-3.3c0-0.8-0.2-1.5-0.6-2.1c-0.4-0.6-1.2-0.9-2.4-0.9H69.3z"/>
</g>
</svg>
