<?xml version="1.0" encoding="utf-8"?>
<!-- Generator: Adobe Illustrator 23.0.4, SVG Export Plug-In . SVG Version: 6.00 Build 0)  -->
<svg version="1.1" xmlns="http://www.w3.org/2000/svg" xmlns:xlink="http://www.w3.org/1999/xlink" x="0px" y="0px"
	 viewBox="0 0 1085.1 542.89" style="enable-background:new 0 0 1085.1 542.89;" xml:space="preserve">
<style type="text/css">
	.st0{fill:#FFFFFF;}
	.st1{fill:#FFCA3B;}
	.st2{fill:#910508;}
	.st3{fill:none;}
</style>
<g id="Layer_7">
</g>
<g id="circle">
</g>
<g id="house">
</g>
<g id="red-shape">
</g>
<g id="dumpling-words">
</g>
<g id="dumpling-shape">
</g>
<g id="dumpling-detail">
	<rect x="542.89" y="0" class="st0" width="542.21" height="542.89"/>
	<g>
		<rect class="st1" width="542.89" height="542.89"/>
		<ellipse class="st0" cx="268.33" cy="271.88" rx="179.75" ry="183.53"/>
		<path class="st2" d="M271.1,92.86c92.72,0,167.89,79.96,167.89,178.59S363.82,450.03,271.1,450.03
			c-92.72,0-167.89-79.96-167.89-178.59S178.38,92.86,271.1,92.86 M271.1,73.71c-25.39,0-50.02,5.29-73.21,15.72
			c-22.3,10.03-42.31,24.37-59.46,42.62c-35.06,37.3-54.37,86.8-54.37,139.4s19.31,102.1,54.37,139.4
			c17.15,18.25,37.16,32.59,59.46,42.62c23.18,10.43,47.82,15.72,73.21,15.72s50.02-5.29,73.21-15.72
			c22.3-10.03,42.31-24.37,59.46-42.62c35.06-37.3,54.37-86.8,54.37-139.4s-19.31-102.1-54.37-139.4
			c-17.15-18.25-37.16-32.59-59.46-42.62C321.12,79,296.49,73.71,271.1,73.71L271.1,73.71z"/>
		<g>
			<path class="st2" d="M183.05,371.84h9.64v13.02h12.37v-13.02h9.64v34.78h-9.64v-13.22h-12.37v13.22h-9.64V371.84z"/>
			<path class="st2" d="M219.66,389.33v-0.1c0-9.99,8.05-18.08,18.78-18.08s18.68,8,18.68,17.99v0.1c0,9.99-8.05,18.08-18.78,18.08
				S219.66,399.32,219.66,389.33z M247.28,389.33v-0.1c0-5.02-3.63-9.39-8.94-9.39c-5.27,0-8.79,4.27-8.79,9.29v0.1
				c0,5.02,3.63,9.39,8.89,9.39C243.75,398.62,247.28,394.35,247.28,389.33z"/>
			<path class="st2" d="M261.68,391.37v-19.53h9.79v19.33c0,5.02,2.53,7.4,6.41,7.4c3.88,0,6.41-2.29,6.41-7.15v-19.58h9.79v19.28
				c0,11.23-6.41,16.15-16.3,16.15S261.68,402.25,261.68,391.37z"/>
			<path class="st2" d="M297.15,401.45l5.37-6.41c3.43,2.73,7.25,4.17,11.28,4.17c2.58,0,3.97-0.89,3.97-2.38v-0.1
				c0-1.44-1.14-2.24-5.86-3.33c-7.4-1.69-13.12-3.78-13.12-10.93v-0.1c0-6.46,5.12-11.13,13.46-11.13c5.91,0,10.53,1.59,14.31,4.62
				l-4.82,6.81c-3.18-2.24-6.66-3.43-9.74-3.43c-2.34,0-3.48,0.99-3.48,2.24v0.1c0,1.59,1.19,2.29,6.01,3.38
				c8,1.74,12.97,4.32,12.97,10.83v0.1c0,7.1-5.61,11.33-14.06,11.33C307.29,407.22,301.42,405.28,297.15,401.45z"/>
			<path class="st2" d="M332.17,371.84h27.97v8.2h-18.43v5.27h16.69v7.6h-16.69v5.51h18.68v8.2h-28.22V371.84z"/>
		</g>
		<g>
			<path class="st2" d="M470.22,360.41H72.67c-8.91,0-16.13-7.22-16.13-16.13v-29.47c0-8.91,7.22-16.13,16.13-16.13h397.54
				c8.91,0,16.13,7.22,16.13,16.13v29.47C486.35,353.19,479.13,360.41,470.22,360.41z"/>
		</g>
		<g>
			<path class="st0" d="M111.84,309.76h15.82c14.64,0,23.14,8.44,23.14,20.27v0.12c0,11.83-8.61,20.62-23.37,20.62h-15.58V309.76z
				 M127.83,340.69c6.79,0,11.31-3.75,11.31-10.37v-0.12c0-6.56-4.51-10.37-11.31-10.37h-4.63v20.85H127.83z"/>
			<path class="st0" d="M156.13,332.78v-23.02h11.54v22.79c0,5.92,2.99,8.73,7.56,8.73c4.57,0,7.56-2.7,7.56-8.44v-23.08h11.54
				v22.73c0,13.24-7.56,19.04-19.21,19.04S156.13,345.61,156.13,332.78z"/>
			<path class="st0" d="M201.06,309.76h12.01l9.78,15.88l9.78-15.88h12.01v41h-11.31v-23.55l-10.49,16.05h-0.23l-10.43-15.93v23.43
				h-11.13V309.76z"/>
			<path class="st0" d="M251.91,309.76h17.57c10.37,0,17.05,5.33,17.05,14.41v0.12c0,9.67-7.44,14.76-17.63,14.76h-5.62v11.72
				h-11.36V309.76z M268.67,330.15c4.04,0,6.5-2.11,6.5-5.33v-0.12c0-3.51-2.46-5.39-6.56-5.39h-5.33v10.84H268.67z"/>
			<path class="st0" d="M291.34,309.76h11.36v31.05h19.86v9.96h-31.22V309.76z"/>
			<path class="st0" d="M327.66,309.76h11.42v41h-11.42V309.76z"/>
			<path class="st0" d="M346.58,309.76h10.6l16.87,21.67v-21.67h11.25v41h-9.96l-17.51-22.49v22.49h-11.25V309.76z"/>
			<path class="st0" d="M391.16,330.38v-0.12c0-11.95,9.37-21.32,22.08-21.32c7.21,0,12.3,2.23,16.64,5.98l-6.68,8.02
				c-2.93-2.46-5.86-3.87-9.9-3.87c-5.92,0-10.49,4.98-10.49,11.25v0.12c0,6.62,4.63,11.36,11.13,11.36c2.75,0,4.86-0.58,6.56-1.7
				v-4.98h-8.08v-8.32h18.86v18.45c-4.33,3.57-10.37,6.33-17.81,6.33C400.71,351.59,391.16,342.8,391.16,330.38z"/>
		</g>
		<path class="st0" d="M402.46,263.26l0.17,0.55c-0.3,0.09-0.59,0.15-0.9,0.19l-0.03-0.62L402.46,263.26z"/>
		<path class="st0" d="M401.74,264.01c-0.22,0.03-0.43,0.04-0.65,0.04v-0.56c0.17-0.03,0.34-0.05,0.51-0.08L401.74,264.01z"/>
		<path class="st3" d="M391.85,248.15c-0.18-0.38-0.36-0.79-0.53-1.21c-0.18-0.46-0.35-0.92-0.5-1.39c-0.31-0.94-0.55-1.9-0.75-2.87
			c-0.1-0.48-0.19-0.97-0.26-1.46c-0.24-1.54-0.37-3.09-0.43-4.64c-0.06-1.55-0.04-3.11,0.02-4.67c0.04-1.04,0.1-2.07,0.16-3.11
			c0.09-1.49,0.23-3.05,0.38-4.64c0.2-2.12,0.41-4.32,0.53-6.51c0.09-1.65,0.13-3.3,0.08-4.93c-0.08-2.71-0.42-5.37-1.2-7.83
			c-0.16-0.49-0.33-0.98-0.53-1.46c-0.07-0.16-0.14-0.32-0.22-0.48c-0.59-1.1-1.61-2.09-2.76-2.98c-0.33-0.25-0.66-0.5-1-0.73
			c-1.02-0.7-2.06-1.32-2.93-1.84c-2.25-1.35-4.62-2.47-7.02-3.52c-0.8-0.35-1.6-0.7-2.4-1.04c-1.15-0.5-2.32-1-3.49-1.52
			c-0.78-0.35-1.55-0.7-2.32-1.07c-0.77-0.37-1.53-0.76-2.28-1.16s-1.48-0.83-2.2-1.28c-0.36-0.22-0.71-0.46-1.06-0.69
			c-0.7-0.48-1.37-0.98-2.02-1.52c-0.32-0.27-0.64-0.54-0.95-0.83c-0.93-0.86-1.8-1.79-2.58-2.83c-4.06-5.38-5.24-12.7-8.09-18.7
			c-0.52-1.09-1.09-2.14-1.75-3.12c-0.99-1.48-2.16-2.81-3.61-3.94c-0.47-0.37-0.96-0.7-1.46-1c-0.17-0.1-0.34-0.18-0.51-0.27
			c-0.34-0.19-0.67-0.38-1.02-0.54c-0.21-0.1-0.43-0.17-0.64-0.26c-0.31-0.13-0.63-0.27-0.95-0.38c-0.23-0.08-0.48-0.14-0.72-0.22
			c-0.31-0.09-0.61-0.19-0.93-0.27c-0.25-0.06-0.51-0.11-0.77-0.16c-0.31-0.06-0.61-0.13-0.93-0.19c-0.27-0.04-0.54-0.08-0.81-0.11
			c-0.31-0.04-0.62-0.09-0.93-0.12c-0.28-0.03-0.56-0.04-0.84-0.07c-0.31-0.02-0.62-0.05-0.94-0.06c-0.28-0.01-0.57-0.02-0.86-0.03
			c-0.32-0.01-0.63-0.02-0.95-0.02c-0.32,0-0.65,0-0.97,0.01c-0.26,0-0.53,0.01-0.79,0.01c-0.34,0.01-0.67,0.02-1.01,0.04
			c-0.26,0.01-0.51,0.02-0.77,0.03c-0.36,0.02-0.73,0.04-1.09,0.06c-0.24,0.01-0.47,0.03-0.71,0.04c-0.42,0.03-0.85,0.05-1.27,0.08
			c-0.42,0.03-0.84,0.06-1.26,0.08c-0.33,0.02-0.67,0.04-1,0.07c-0.41,0.03-0.83,0.05-1.24,0.07c-0.19,0.01-0.38,0.02-0.56,0.03
			c-0.59,0.03-1.19,0.06-1.77,0.07c-0.1,0-0.2,0-0.3,0c-0.47,0.01-0.94,0.02-1.41,0.02c-0.03,0-0.06,0-0.08,0
			c-1.09,0-2.18-0.05-3.27-0.13c-0.54-0.04-1.09-0.1-1.63-0.16c-4.33-0.51-8.58-1.66-12.57-3.42c-1.5-0.66-2.96-1.4-4.37-2.22
			c-0.94-0.55-1.86-1.13-2.76-1.75c-4.31-2.97-8.39-6.84-12.99-9.09c-1.25-0.61-2.55-1.11-3.89-1.43c-0.9-0.21-1.82-0.35-2.77-0.4
			c-0.4-0.02-0.79-0.01-1.18,0.01c-0.25,0.01-0.5,0.02-0.75,0.04c-0.27,0.02-0.54,0.05-0.81,0.09c-0.24,0.03-0.49,0.07-0.73,0.11
			c-0.27,0.05-0.53,0.11-0.8,0.17c-0.24,0.06-0.48,0.11-0.71,0.18c-0.26,0.07-0.52,0.16-0.78,0.24c-0.23,0.08-0.46,0.15-0.69,0.24
			c-0.26,0.1-0.51,0.2-0.77,0.31c-0.23,0.09-0.45,0.19-0.68,0.29c-0.25,0.11-0.51,0.24-0.76,0.36c-0.22,0.11-0.44,0.22-0.66,0.33
			c-0.25,0.13-0.5,0.27-0.75,0.41c-0.22,0.12-0.44,0.24-0.65,0.37c-0.25,0.15-0.5,0.3-0.75,0.46c-0.21,0.13-0.42,0.26-0.63,0.39
			c-0.25,0.16-0.5,0.33-0.75,0.5c-0.21,0.14-0.41,0.27-0.62,0.41c-0.26,0.17-0.51,0.35-0.76,0.53c-0.2,0.14-0.4,0.28-0.59,0.42
			c-0.27,0.19-0.53,0.38-0.8,0.58c-0.19,0.14-0.38,0.27-0.57,0.41c-0.34,0.25-0.68,0.5-1.02,0.75c-0.29,0.21-0.58,0.42-0.86,0.63
			c-0.25,0.18-0.5,0.37-0.75,0.55c-0.24,0.18-0.49,0.35-0.73,0.52c-0.21,0.15-0.42,0.3-0.62,0.44c-0.28,0.2-0.56,0.38-0.84,0.58
			c-0.17,0.12-0.35,0.24-0.52,0.36c-0.43,0.29-0.86,0.57-1.3,0.84c-0.02,0.01-0.04,0.03-0.06,0.04c-0.69,0.43-1.41,0.83-2.13,1.21
			c-0.14,0.07-0.28,0.15-0.42,0.22c-0.7,0.36-1.41,0.7-2.13,1.02c-0.14,0.06-0.27,0.12-0.41,0.18c-0.71,0.3-1.42,0.59-2.14,0.85
			c-0.06,0.02-0.11,0.04-0.17,0.06c-0.76,0.27-1.52,0.51-2.29,0.73c-0.16,0.05-0.32,0.09-0.48,0.14c-0.76,0.21-1.53,0.4-2.3,0.56
			c-0.13,0.03-0.26,0.05-0.39,0.08c-0.73,0.15-1.47,0.28-2.22,0.39c-0.1,0.01-0.19,0.03-0.29,0.04c-0.79,0.11-1.58,0.19-2.38,0.25
			c-0.17,0.01-0.34,0.02-0.5,0.04c-0.79,0.05-1.59,0.08-2.38,0.08c-0.03,0-0.06,0-0.1,0c-0.1,0-0.2-0.01-0.3-0.01
			c-0.58,0-1.16-0.02-1.73-0.05c-0.19-0.01-0.38-0.02-0.57-0.03c-0.7-0.05-1.4-0.11-2.09-0.19c-0.46-0.06-0.92-0.12-1.39-0.19
			c-0.12-0.02-0.24-0.04-0.37-0.06c-0.4-0.06-0.81-0.13-1.21-0.2c-0.05-0.01-0.1-0.02-0.15-0.03c-0.52-0.09-1.04-0.18-1.56-0.28
			c-0.41-0.07-0.82-0.14-1.22-0.21c-0.09-0.02-0.19-0.03-0.28-0.05c-0.45-0.08-0.9-0.15-1.35-0.22c-0.11-0.02-0.22-0.03-0.33-0.05
			c-0.38-0.05-0.76-0.1-1.14-0.15c-0.1-0.01-0.2-0.02-0.29-0.04c-0.45-0.05-0.9-0.09-1.35-0.12c-0.1-0.01-0.19-0.01-0.29-0.02
			c-0.37-0.02-0.75-0.03-1.12-0.04c-0.12,0-0.24,0-0.35,0c-0.21,0-0.41,0.01-0.62,0.02c-0.15,0.01-0.31,0.01-0.46,0.02
			c-0.21,0.01-0.43,0.03-0.64,0.06c-0.14,0.01-0.29,0.02-0.43,0.04c-0.24,0.03-0.47,0.07-0.7,0.11c-0.12,0.02-0.24,0.04-0.36,0.06
			c-0.35,0.07-0.71,0.15-1.06,0.24c-7.79,2.11-12.16,10.26-14.92,17.84c-0.69,1.9-1.36,3.84-2.08,5.77
			c-0.36,0.96-0.73,1.92-1.13,2.87c-0.59,1.42-1.23,2.81-1.94,4.13c-0.71,1.33-1.5,2.6-2.4,3.77c-0.6,0.79-1.24,1.53-1.94,2.23
			c-0.7,0.7-1.45,1.35-2.27,1.94c-4.77,3.46-10.97,4.37-16.61,6.17c-3.38,1.08-6.56,2.47-9.11,4.92c-2,1.92-3.35,4.24-4.24,6.78
			c-0.36,1.02-0.64,2.07-0.86,3.15c-0.33,1.62-0.52,3.29-0.62,4.99c-0.19,3.4,0.01,6.9,0.28,10.22c0.36,4.47,0.61,9.01-0.02,13.46
			c-0.13,0.94-0.28,1.77-0.51,2.53c-0.3,1.02-0.73,1.93-1.45,2.88c-0.18,0.24-0.38,0.48-0.6,0.72c-0.34,0.38-0.77,0.95-1.14,1.59
			c-0.07,0.13-0.14,0.26-0.21,0.39c-0.08,0.17-0.16,0.34-0.23,0.52c-0.08,0.21-0.15,0.42-0.2,0.62c-0.04,0.17-0.07,0.33-0.09,0.5
			c-0.08,0.81,0.17,1.55,1.03,2.03c0.46,0.26,1.24,0.51,2.14,0.74c0.54,0.14,1.12,0.27,1.71,0.38c1.56,0.31,3.13,0.55,3.94,0.63
			c0.6,0.06,1.11,0.11,1.55,0.15c0.63,0.06,1.15,0.11,1.64,0.15c0.12,0.01,0.24,0.02,0.36,0.04c0.47,0.05,0.94,0.1,1.5,0.17
			c0.14,0.02,0.29,0.04,0.44,0.06c0.46,0.06,0.98,0.13,1.59,0.22c5.86,0.86,11.73,1.65,17.61,2.37c2.94,0.36,5.88,0.71,8.83,1.04
			c5.89,0.66,11.78,1.25,17.68,1.77c0.07,0.01,0.14,0.01,0.22,0.02c0-0.06-0.01-0.11-0.01-0.17c-0.04-0.94-0.07-1.89-0.07-2.84
			c0-13.11,3.99-25.29,10.81-35.39c6.26-9.26,14.9-16.78,25.05-21.67c0.92-0.44,1.86-0.87,2.8-1.27c3.79-1.6,7.76-2.85,11.88-3.69
			c4.12-0.84,8.39-1.29,12.76-1.29c2.18,0,4.34,0.11,6.46,0.33c1.42,0.14,2.82,0.34,4.21,0.57c2.08,0.35,4.13,0.81,6.13,1.36
			c1.34,0.37,2.66,0.78,3.96,1.23c0.65,0.23,1.3,0.46,1.94,0.71c3.2,1.23,6.28,2.72,9.21,4.43l-10.64,10.64h0
			c-1.61-0.78-3.26-1.47-4.96-2.08c-2.55-0.9-5.19-1.6-7.92-2.07c-2.72-0.47-5.52-0.72-8.38-0.72c-1.69,0-3.35,0.09-4.99,0.25
			c-10.67,1.09-20.34,5.62-27.87,12.47c-4.05,3.69-7.49,8.04-10.13,12.89c-1.13,2.08-2.11,4.25-2.94,6.49
			c-1.1,2.99-1.91,6.13-2.41,9.36c-0.37,2.43-0.56,4.91-0.56,7.44c0,1.4,0.06,2.78,0.18,4.15c0.8,0.06,1.61,0.12,2.41,0.17
			c0.89,0.06,1.79,0.11,2.68,0.17c1.87,0.12,3.75,0.23,5.63,0.34c1.05,0.06,2.1,0.11,3.15,0.17c1.74,0.09,3.48,0.18,5.22,0.26
			c1.08,0.05,2.16,0.1,3.24,0.14c1.75,0.07,3.51,0.14,5.26,0.2c1.03,0.04,2.06,0.07,3.1,0.1c1.93,0.06,3.86,0.11,5.79,0.15
			c0.84,0.02,1.69,0.04,2.53,0.06c2.77,0.06,5.54,0.1,8.31,0.13c0.26,0,0.52,0,0.78,0c2.46,0.02,4.93,0.03,7.39,0.03
			c3.23,0,6.45-0.02,9.68-0.06c10.74-0.14,21.47-0.5,32.19-1.07c0.17-1.62,0.27-3.26,0.27-4.93c0-4.05-0.5-7.99-1.43-11.75
			c-0.62-2.51-1.44-4.94-2.43-7.29c-0.5-1.17-1.04-2.32-1.62-3.44c-0.29-0.56-0.59-1.12-0.91-1.66c-0.94-1.64-1.97-3.23-3.09-4.75
			l10.29-10.29c3.56,4.51,6.52,9.53,8.76,14.92c1.1,2.65,2.04,5.39,2.78,8.21c0.4,1.54,0.74,3.11,1.03,4.7
			c0.35,1.93,0.62,3.89,0.79,5.87c0.16,1.81,0.24,3.64,0.24,5.49c0,1.35-0.06,2.69-0.15,4.02c2.86-0.21,5.72-0.42,8.58-0.66
			c6.99-0.58,13.97-1.26,20.93-2.03c2.32-0.26,4.64-0.53,6.96-0.81c4.11-0.49,8.25-0.78,12.36-1.2c1.37-0.14,2.74-0.3,4.11-0.49
			c2.61-0.36,5.87-0.23,8.23-1.56c0.61-0.34,1.02-0.69,1.27-1.05c0.09-0.12,0.15-0.24,0.21-0.36c0.13-0.3,0.17-0.61,0.15-0.93
			c0,0,0-0.01,0-0.01c-0.04-0.49-0.22-1-0.46-1.55C392.02,248.53,391.93,248.34,391.85,248.15z"/>
		<path class="st2" d="M408.41,255.55c-0.04-0.34-0.09-0.68-0.13-1.01c-0.17-1.32-0.35-2.55-0.52-3.7c-0.26-1.73-0.53-3.27-0.79-4.7
			c-0.18-1-0.36-1.94-0.54-2.83c-0.07-0.34-0.13-0.68-0.2-1.01c-0.02-0.08-0.03-0.17-0.05-0.25c-0.07-0.33-0.13-0.65-0.2-0.97
			c-0.21-1.04-0.41-2.05-0.6-3.06c-0.07-0.39-0.14-0.77-0.21-1.16c-0.1-0.58-0.2-1.17-0.29-1.77c-0.19-1.2-0.35-2.44-0.49-3.78
			c-0.11-1.12-0.21-2.3-0.28-3.59c-0.01-0.26-0.03-0.52-0.04-0.79c-0.03-0.53-0.05-1.08-0.07-1.65c-0.04-1.42-0.07-2.96-0.06-4.66
			c0-1.02,0.02-2.09,0.04-3.22c0.01-0.38,0.02-0.76,0.03-1.16c0.13-4.71,0.43-10.44,0.96-17.65c0.3-4.11-1.54-7.1-4.55-9.46
			c-0.33-0.26-0.68-0.52-1.05-0.76c-1.09-0.74-2.29-1.42-3.58-2.05c-0.43-0.21-0.87-0.41-1.31-0.61c-2.23-1-4.66-1.89-7.11-2.75
			c-1.96-0.69-3.95-1.36-5.86-2.06c-0.96-0.35-1.9-0.71-2.81-1.07c-3.2-1.29-6.06-2.72-8.13-4.54c-6.74-5.89-8.19-15.71-12.91-23.31
			c-0.56-0.91-1.18-1.78-1.83-2.62c-0.66-0.84-1.36-1.64-2.11-2.41c-1.12-1.15-2.32-2.21-3.61-3.17c-1.71-1.28-3.55-2.39-5.48-3.29
			c-2.42-1.13-4.98-1.94-7.62-2.39c0,0-0.01,0-0.01,0c-0.6-0.1-1.2-0.18-1.8-0.25c-0.2-0.02-0.41-0.04-0.61-0.06
			c-0.4-0.04-0.81-0.07-1.22-0.1c-0.24-0.02-0.48-0.03-0.71-0.04c-0.38-0.02-0.75-0.03-1.13-0.04c-0.25-0.01-0.49-0.01-0.74-0.01
			c-0.16,0-0.32-0.01-0.49-0.01c-0.11,0-0.22,0.01-0.32,0.01c-1.05,0.01-2.11,0.03-3.17,0.08c-0.19,0.01-0.38,0.02-0.57,0.03
			c-1.09,0.05-2.18,0.12-3.27,0.18c-1.18,0.07-2.37,0.14-3.55,0.2c-0.02,0-0.05,0-0.07,0c-1.12,0.05-2.24,0.08-3.35,0.09
			c-0.12,0-0.24,0-0.35,0c-0.09,0-0.18,0-0.27,0c-0.51,0-1.01-0.02-1.52-0.03c-0.11,0-0.23-0.01-0.34-0.01
			c-0.56-0.03-1.12-0.06-1.67-0.11c-0.12-0.01-0.23-0.02-0.35-0.03c-0.51-0.05-1.02-0.11-1.53-0.18c-0.08-0.01-0.15-0.02-0.23-0.03
			c-0.55-0.08-1.11-0.19-1.66-0.3c-0.13-0.03-0.25-0.06-0.38-0.08c-0.56-0.13-1.12-0.26-1.68-0.43c0,0,0,0,0,0
			c-1.55-0.46-3.05-1.07-4.5-1.79c-1.82-0.89-3.57-1.95-5.28-3.1c-6.17-4.11-11.88-9.3-18.52-11.68c-0.74-0.26-1.49-0.49-2.25-0.68
			s-1.54-0.34-2.33-0.45c-0.4-0.05-0.8-0.09-1.2-0.12c-0.48-0.03-0.95-0.05-1.42-0.05c-0.02,0-0.04,0-0.06,0
			c-0.25,0-0.5,0.01-0.76,0.02c-0.16,0.01-0.33,0.01-0.49,0.02c-0.33,0.02-0.66,0.05-0.98,0.09c-0.1,0.01-0.2,0.02-0.31,0.03
			c-0.43,0.05-0.86,0.12-1.28,0.19c-0.01,0-0.03,0.01-0.04,0.01c-0.41,0.07-0.82,0.16-1.22,0.26c-0.11,0.03-0.22,0.06-0.34,0.09
			c-0.3,0.08-0.61,0.15-0.91,0.24c-0.14,0.04-0.27,0.09-0.41,0.13c-0.27,0.08-0.55,0.17-0.82,0.26c-0.15,0.05-0.29,0.11-0.44,0.16
			c-0.26,0.09-0.53,0.19-0.79,0.29c-0.15,0.06-0.3,0.12-0.45,0.18c-0.25,0.1-0.51,0.2-0.76,0.31c-0.16,0.07-0.31,0.14-0.46,0.21
			c-0.25,0.11-0.49,0.22-0.74,0.34c-0.15,0.07-0.31,0.15-0.46,0.22c-0.24,0.12-0.49,0.24-0.73,0.36c-0.15,0.08-0.31,0.16-0.46,0.24
			c-0.24,0.13-0.48,0.25-0.73,0.38c-0.15,0.08-0.31,0.17-0.46,0.25c-0.24,0.13-0.48,0.27-0.72,0.4c-0.15,0.09-0.3,0.17-0.45,0.26
			c-0.25,0.14-0.49,0.28-0.74,0.43c-0.14,0.08-0.29,0.17-0.43,0.26c-0.25,0.15-0.51,0.3-0.76,0.46c-0.13,0.08-0.27,0.16-0.4,0.24
			c-0.27,0.16-0.53,0.33-0.8,0.49c-0.12,0.07-0.24,0.15-0.35,0.22c-0.3,0.19-0.59,0.37-0.89,0.56c-0.07,0.04-0.14,0.09-0.21,0.13
			c-0.85,0.54-1.7,1.08-2.55,1.61c-0.13,0.08-0.27,0.17-0.4,0.25c-0.25,0.16-0.49,0.31-0.74,0.46c-0.16,0.1-0.33,0.2-0.49,0.3
			c-0.22,0.14-0.44,0.27-0.67,0.41c-0.18,0.11-0.37,0.22-0.55,0.33c-0.21,0.12-0.41,0.25-0.62,0.37c-0.19,0.11-0.39,0.23-0.58,0.34
			c-0.2,0.12-0.4,0.23-0.6,0.35c-0.2,0.11-0.4,0.23-0.6,0.34c-0.2,0.11-0.39,0.22-0.59,0.33c-0.21,0.11-0.41,0.22-0.62,0.33
			c-0.19,0.1-0.39,0.21-0.58,0.31c-0.21,0.11-0.43,0.22-0.64,0.32c-0.19,0.1-0.38,0.19-0.58,0.28c-0.22,0.11-0.44,0.21-0.66,0.31
			c-0.19,0.09-0.38,0.18-0.57,0.26c-0.22,0.1-0.45,0.19-0.68,0.29c-0.19,0.08-0.38,0.16-0.57,0.24c-0.23,0.09-0.47,0.18-0.7,0.27
			c-0.18,0.07-0.37,0.14-0.55,0.21c-0.25,0.09-0.5,0.17-0.75,0.25c-0.17,0.06-0.35,0.12-0.52,0.17c-0.28,0.09-0.56,0.16-0.84,0.24
			c-0.15,0.04-0.3,0.09-0.45,0.13c-0.43,0.11-0.86,0.21-1.29,0.3c-0.01,0-0.01,0-0.02,0c-0.54,0.11-1.09,0.21-1.64,0.28
			c-0.18,0.03-0.37,0.04-0.56,0.07c-0.36,0.04-0.72,0.09-1.09,0.12c-0.23,0.02-0.45,0.03-0.68,0.05c-0.32,0.02-0.65,0.05-0.97,0.06
			c-0.24,0.01-0.49,0.01-0.73,0.02c-0.31,0.01-0.62,0.02-0.93,0.02c-0.19,0-0.39,0-0.59-0.01c-0.41,0-0.82-0.01-1.23-0.02
			c-0.23-0.01-0.46-0.02-0.69-0.03c-0.38-0.02-0.76-0.03-1.14-0.05c-0.23-0.01-0.46-0.03-0.7-0.04c-0.39-0.02-0.79-0.05-1.18-0.08
			c-0.22-0.02-0.44-0.03-0.66-0.05c-0.47-0.04-0.95-0.07-1.42-0.11c-0.69-0.05-1.39-0.11-2.08-0.16c-0.05,0-0.1-0.01-0.15-0.01
			c-0.54-0.04-1.08-0.08-1.63-0.11c-0.19-0.01-0.39-0.02-0.58-0.03c-0.41-0.02-0.81-0.04-1.21-0.06c-0.23-0.01-0.45-0.01-0.68-0.02
			c-0.38-0.01-0.75-0.02-1.13-0.02c-0.13,0-0.27-0.01-0.4-0.01c-0.1,0-0.19,0.01-0.29,0.01c-0.42,0-0.85,0.01-1.27,0.03
			c-0.2,0.01-0.4,0.01-0.6,0.02c-0.61,0.03-1.22,0.07-1.84,0.14c0,0-0.01,0-0.01,0c-10.31,1.09-19.88,7.62-24.66,16.81
			c-0.41,0.8-0.79,1.62-1.15,2.45c-0.19,0.44-0.38,0.89-0.56,1.34c-0.35,0.87-0.68,1.74-1,2.63c-1.2,3.31-2.27,6.7-3.72,9.79
			c-1.45,3.09-3.27,5.9-5.96,8.05c-4.05,3.23-9.28,4.29-14.27,5.87c-1.15,0.36-2.29,0.76-3.39,1.21c-1.37,0.56-2.69,1.23-3.95,1.99
			c-0.63,0.38-1.25,0.78-1.85,1.21c-7.82,5.53-13.05,14.76-13.39,24.36c-0.15,4.23,0.57,8.49,0.94,12.71
			c0.29,3.29,0.37,6.55-0.33,9.77c-0.09,0.42-0.2,0.84-0.31,1.26c-0.23,0.83-0.51,1.65-0.82,2.46c-2.01,5.25-5.39,10.09-6.65,15.5
			c-0.13,0.57-0.23,1.14-0.31,1.73c-0.02,0.17-0.05,0.35-0.07,0.52c-0.15,1.39-0.09,2.91,0.58,4.1c0.13,0.24,0.28,0.48,0.47,0.69
			c0.13,0.15,0.26,0.28,0.41,0.4c1.02,0.86,2.42,1.2,3.74,1.49c2.75,0.6,5.51,1.18,8.27,1.73c0.94,0.19,1.89,0.36,2.83,0.55
			c1.82,0.36,3.64,0.72,5.46,1.05c1.11,0.21,2.23,0.39,3.34,0.59c1.66,0.3,3.31,0.6,4.97,0.88c1.19,0.2,2.38,0.38,3.57,0.58
			c1.59,0.26,3.17,0.52,4.76,0.77c1.23,0.19,2.47,0.36,3.7,0.54c1.55,0.23,3.09,0.46,4.64,0.68c1.26,0.18,2.53,0.34,3.8,0.5
			c1.52,0.2,3.04,0.41,4.56,0.6c1.28,0.16,2.56,0.3,3.85,0.45c1.51,0.18,3.02,0.36,4.53,0.53c1.3,0.14,2.59,0.27,3.89,0.41
			c1.5,0.16,2.99,0.32,4.49,0.46c1.32,0.13,2.64,0.24,3.96,0.36c1.48,0.13,2.96,0.27,4.44,0.4c1.33,0.11,2.66,0.21,3.98,0.31
			c1.48,0.11,2.95,0.23,4.43,0.34c1.33,0.09,2.67,0.18,4,0.26c1.47,0.1,2.95,0.19,4.42,0.28c1.34,0.08,2.69,0.14,4.03,0.22
			c1.46,0.08,2.92,0.16,4.39,0.22c1.35,0.06,2.71,0.11,4.06,0.17c1.46,0.06,2.92,0.12,4.38,0.17c1.36,0.05,2.72,0.08,4.07,0.12
			c1.45,0.04,2.91,0.09,4.36,0.12c1.37,0.03,2.74,0.05,4.1,0.08c1.45,0.03,2.89,0.05,4.34,0.07c1.37,0.02,2.74,0.02,4.11,0.03
			c1.45,0.01,2.89,0.02,4.34,0.02c0.41,0,0.82,0.01,1.23,0.01c1.03,0,2.05-0.01,3.08-0.02c1.32,0,2.63-0.01,3.95-0.02
			c1.45-0.01,2.91-0.03,4.36-0.05c1.32-0.02,2.63-0.03,3.95-0.06c1.46-0.03,2.91-0.06,4.37-0.09c1.31-0.03,2.62-0.06,3.94-0.09
			c1.46-0.04,2.93-0.09,4.39-0.14c1.3-0.04,2.61-0.08,3.91-0.13c1.48-0.05,2.95-0.12,4.43-0.18c1.29-0.05,2.59-0.1,3.88-0.16
			c1.48-0.07,2.95-0.14,4.43-0.21c1.29-0.06,2.59-0.13,3.88-0.19c1.48-0.08,2.97-0.17,4.45-0.25c1.29-0.07,2.57-0.15,3.86-0.22
			c1.49-0.09,2.99-0.19,4.48-0.29c1.27-0.08,2.55-0.16,3.82-0.25c1.5-0.1,3-0.22,4.5-0.33c1.27-0.09,2.53-0.18,3.8-0.28
			c1.53-0.12,3.05-0.24,4.57-0.36c1.24-0.1,2.47-0.2,3.71-0.3c1.55-0.13,3.09-0.27,4.64-0.4c1.22-0.11,2.44-0.21,3.66-0.32
			c1.55-0.14,3.1-0.29,4.64-0.43c1.21-0.11,2.43-0.22,3.64-0.34c1.6-0.15,3.2-0.32,4.79-0.48c1.16-0.12,2.31-0.23,3.47-0.35
			c1.68-0.17,3.36-0.35,5.04-0.53c1.08-0.11,2.16-0.22,3.23-0.34c1.84-0.2,3.68-0.41,5.52-0.61c0.91-0.1,1.82-0.2,2.73-0.3
			c2.75-0.31,5.5-0.63,8.24-0.96c0.52-0.06,1.05-0.13,1.58-0.21c1.45-0.21,2.91-0.51,4.25-0.99c0.23-0.08,0.46-0.17,0.68-0.27
			c0.34-0.15,0.67-0.31,1-0.49c0.3-0.17,0.6-0.34,0.88-0.54c0.77-0.54,1.44-1.21,1.96-2.03c0.32-0.5,0.59-1.04,0.81-1.59
			c0.22-0.56,0.39-1.14,0.51-1.73c0.12-0.59,0.19-1.19,0.21-1.79S408.49,256.14,408.41,255.55z M392.56,250.28
			c0.02,0.32-0.02,0.63-0.15,0.93c-0.05,0.12-0.12,0.24-0.21,0.36c-0.26,0.36-0.67,0.71-1.27,1.05c-2.36,1.33-5.62,1.21-8.23,1.56
			c-1.37,0.19-2.74,0.34-4.11,0.49c-4.12,0.43-8.25,0.71-12.36,1.2c-2.32,0.28-4.64,0.55-6.96,0.81
			c-6.97,0.77-13.95,1.45-20.93,2.03c-2.86,0.24-5.72,0.45-8.58,0.66c0.09-1.33,0.15-2.67,0.15-4.02c0-1.85-0.08-3.68-0.24-5.49
			c-0.17-1.99-0.44-3.94-0.79-5.87c-0.29-1.59-0.63-3.15-1.03-4.7c-0.74-2.82-1.68-5.56-2.78-8.21c-2.24-5.39-5.2-10.4-8.76-14.92
			l-10.29,10.29c1.12,1.52,2.15,3.1,3.09,4.75c0.31,0.55,0.62,1.1,0.91,1.66c0.58,1.12,1.13,2.27,1.62,3.44
			c0.99,2.34,1.81,4.78,2.43,7.29c0.93,3.77,1.43,7.7,1.43,11.75c0,1.67-0.1,3.31-0.27,4.93c-10.72,0.57-21.46,0.93-32.19,1.07
			c-3.22,0.04-6.45,0.06-9.68,0.06c-2.46,0-4.93-0.01-7.39-0.03c-0.26,0-0.52,0-0.78,0c-2.77-0.03-5.54-0.07-8.31-0.13
			c-0.84-0.02-1.69-0.04-2.53-0.06c-1.93-0.04-3.86-0.09-5.79-0.15c-1.03-0.03-2.06-0.07-3.1-0.1c-1.75-0.06-3.51-0.13-5.26-0.2
			c-1.08-0.04-2.16-0.09-3.24-0.14c-1.74-0.08-3.48-0.16-5.22-0.26c-1.05-0.05-2.1-0.11-3.15-0.17c-1.88-0.11-3.75-0.22-5.63-0.34
			c-0.89-0.06-1.79-0.11-2.68-0.17c-0.8-0.05-1.61-0.12-2.41-0.17c-0.12-1.37-0.18-2.75-0.18-4.15c0-2.53,0.19-5.01,0.56-7.44
			c0.5-3.23,1.31-6.36,2.41-9.36c0.82-2.25,1.81-4.41,2.94-6.49c2.64-4.85,6.07-9.21,10.13-12.89c7.53-6.85,17.2-11.38,27.87-12.47
			c1.64-0.17,3.31-0.25,4.99-0.25c2.86,0,5.65,0.25,8.38,0.72c2.72,0.47,5.37,1.17,7.92,2.07c1.7,0.6,3.36,1.3,4.96,2.08h0
			l10.64-10.64c-2.93-1.71-6-3.2-9.21-4.43c-0.64-0.25-1.29-0.48-1.94-0.71c-1.3-0.45-2.62-0.86-3.96-1.23
			c-2.01-0.55-4.05-1.01-6.13-1.36c-1.39-0.24-2.79-0.43-4.21-0.57c-2.12-0.22-4.28-0.33-6.46-0.33c-4.37,0-8.64,0.44-12.76,1.29
			c-4.12,0.84-8.1,2.09-11.88,3.69c-0.95,0.4-1.88,0.82-2.8,1.27c-10.15,4.89-18.79,12.41-25.05,21.67
			c-6.83,10.1-10.81,22.28-10.81,35.39c0,0.95,0.02,1.9,0.07,2.84c0,0.06,0.01,0.11,0.01,0.17c-0.07-0.01-0.14-0.01-0.22-0.02
			c-5.9-0.52-11.8-1.11-17.68-1.77c-2.94-0.33-5.89-0.67-8.83-1.04c-5.88-0.72-11.75-1.51-17.61-2.37
			c-0.62-0.09-1.14-0.16-1.59-0.22c-0.15-0.02-0.3-0.04-0.44-0.06c-0.56-0.07-1.03-0.12-1.5-0.17c-0.12-0.01-0.24-0.02-0.36-0.04
			c-0.49-0.05-1.01-0.09-1.64-0.15c-0.45-0.04-0.95-0.09-1.55-0.15c-0.81-0.08-2.38-0.32-3.94-0.63c-0.58-0.12-1.17-0.25-1.71-0.38
			c-0.9-0.23-1.67-0.48-2.14-0.74c-0.86-0.48-1.11-1.22-1.03-2.03c0.02-0.16,0.05-0.33,0.09-0.5c0.05-0.21,0.12-0.42,0.2-0.62
			c0.07-0.17,0.14-0.35,0.23-0.52c0.07-0.13,0.14-0.27,0.21-0.39c0.36-0.64,0.8-1.21,1.14-1.59c0.22-0.24,0.42-0.48,0.6-0.72
			c0.72-0.95,1.16-1.86,1.45-2.88c0.22-0.77,0.37-1.59,0.51-2.53c0.63-4.46,0.38-8.99,0.02-13.46c-0.27-3.32-0.47-6.82-0.28-10.22
			c0.09-1.7,0.29-3.38,0.62-4.99c0.22-1.08,0.5-2.13,0.86-3.15c0.89-2.54,2.24-4.85,4.24-6.78c2.54-2.45,5.72-3.85,9.11-4.92
			c5.64-1.8,11.84-2.71,16.61-6.17c0.82-0.59,1.57-1.24,2.27-1.94c0.7-0.7,1.34-1.44,1.94-2.23c0.89-1.18,1.68-2.45,2.4-3.77
			c0.71-1.33,1.35-2.72,1.94-4.13c0.39-0.95,0.77-1.9,1.13-2.87c0.72-1.93,1.39-3.87,2.08-5.77c2.76-7.58,7.13-15.73,14.92-17.84
			c0.35-0.1,0.7-0.18,1.06-0.24c0.12-0.02,0.24-0.04,0.36-0.06c0.23-0.04,0.47-0.08,0.7-0.11c0.14-0.02,0.29-0.03,0.43-0.04
			c0.21-0.02,0.43-0.04,0.64-0.06c0.15-0.01,0.31-0.01,0.46-0.02c0.21-0.01,0.41-0.02,0.62-0.02c0.12,0,0.24,0,0.35,0
			c0.37,0,0.75,0.02,1.12,0.04c0.1,0.01,0.19,0.01,0.29,0.02c0.45,0.03,0.9,0.07,1.35,0.12c0.1,0.01,0.19,0.02,0.29,0.04
			c0.38,0.04,0.76,0.09,1.14,0.15c0.11,0.02,0.22,0.03,0.33,0.05c0.45,0.07,0.9,0.14,1.35,0.22c0.09,0.02,0.19,0.03,0.28,0.05
			c0.41,0.07,0.82,0.14,1.22,0.21c0.52,0.09,1.04,0.19,1.56,0.28c0.05,0.01,0.1,0.02,0.15,0.03c0.4,0.07,0.81,0.14,1.21,0.2
			c0.12,0.02,0.24,0.04,0.37,0.06c0.46,0.07,0.92,0.14,1.39,0.19c0.7,0.09,1.39,0.15,2.09,0.19c0.19,0.01,0.38,0.02,0.57,0.03
			c0.58,0.03,1.16,0.05,1.73,0.05c0.1,0,0.2,0.01,0.3,0.01c0.03,0,0.06,0,0.1,0c0.79,0,1.59-0.03,2.38-0.08
			c0.17-0.01,0.34-0.02,0.5-0.04c0.79-0.06,1.59-0.14,2.38-0.25c0.1-0.01,0.19-0.03,0.29-0.04c0.74-0.11,1.48-0.24,2.22-0.39
			c0.13-0.03,0.26-0.05,0.39-0.08c0.77-0.16,1.54-0.35,2.3-0.56c0.16-0.04,0.32-0.09,0.48-0.14c0.77-0.22,1.54-0.46,2.29-0.73
			c0.06-0.02,0.11-0.04,0.17-0.06c0.72-0.26,1.44-0.55,2.14-0.85c0.14-0.06,0.28-0.12,0.41-0.18c0.72-0.32,1.43-0.66,2.13-1.02
			c0.14-0.07,0.28-0.15,0.42-0.22c0.72-0.38,1.43-0.78,2.13-1.21c0.02-0.01,0.04-0.03,0.06-0.04c0.44-0.27,0.87-0.55,1.3-0.84
			c0.17-0.12,0.35-0.24,0.52-0.36c0.28-0.19,0.56-0.38,0.84-0.58c0.21-0.15,0.42-0.3,0.62-0.44c0.24-0.17,0.49-0.34,0.73-0.52
			c0.25-0.18,0.5-0.36,0.75-0.55c0.29-0.21,0.58-0.42,0.86-0.63c0.34-0.25,0.68-0.5,1.02-0.75c0.19-0.14,0.38-0.27,0.57-0.41
			c0.27-0.19,0.53-0.39,0.8-0.58c0.2-0.14,0.4-0.28,0.59-0.42c0.25-0.18,0.51-0.36,0.76-0.53c0.2-0.14,0.41-0.27,0.62-0.41
			c0.25-0.17,0.5-0.33,0.75-0.5c0.21-0.13,0.42-0.26,0.63-0.39c0.25-0.15,0.5-0.31,0.75-0.46c0.22-0.13,0.43-0.25,0.65-0.37
			c0.25-0.14,0.5-0.28,0.75-0.41c0.22-0.12,0.44-0.22,0.66-0.33c0.25-0.12,0.5-0.25,0.76-0.36c0.22-0.1,0.45-0.19,0.68-0.29
			c0.26-0.11,0.51-0.21,0.77-0.31c0.23-0.09,0.46-0.16,0.69-0.24c0.26-0.09,0.52-0.17,0.78-0.24c0.24-0.07,0.47-0.12,0.71-0.18
			c0.26-0.06,0.53-0.12,0.8-0.17c0.24-0.04,0.49-0.08,0.73-0.11c0.27-0.04,0.54-0.07,0.81-0.09c0.25-0.02,0.5-0.03,0.75-0.04
			c0.39-0.01,0.78-0.03,1.18-0.01c0.95,0.05,1.87,0.18,2.77,0.4c1.35,0.32,2.64,0.81,3.89,1.43c4.6,2.25,8.68,6.12,12.99,9.09
			c0.9,0.62,1.82,1.2,2.76,1.75c1.41,0.82,2.87,1.56,4.37,2.22c3.99,1.75,8.24,2.91,12.57,3.42c0.54,0.06,1.08,0.12,1.63,0.16
			c1.09,0.09,2.18,0.13,3.27,0.13c0.03,0,0.06,0,0.08,0c0.47,0,0.94-0.01,1.41-0.02c0.1,0,0.2,0,0.3,0
			c0.59-0.02,1.18-0.04,1.77-0.07c0.19-0.01,0.37-0.02,0.56-0.03c0.41-0.02,0.82-0.05,1.24-0.07c0.33-0.02,0.67-0.04,1-0.07
			c0.42-0.03,0.84-0.06,1.26-0.08c0.42-0.03,0.85-0.06,1.27-0.08c0.24-0.01,0.47-0.03,0.71-0.04c0.36-0.02,0.73-0.04,1.09-0.06
			c0.26-0.01,0.51-0.02,0.77-0.03c0.34-0.01,0.68-0.03,1.01-0.04c0.26-0.01,0.53-0.01,0.79-0.01c0.32,0,0.65-0.01,0.97-0.01
			c0.32,0,0.63,0.01,0.95,0.02c0.29,0.01,0.57,0.01,0.86,0.03c0.32,0.01,0.63,0.04,0.94,0.06c0.28,0.02,0.56,0.04,0.84,0.07
			c0.31,0.03,0.62,0.08,0.93,0.12c0.27,0.04,0.54,0.07,0.81,0.11c0.31,0.05,0.62,0.12,0.93,0.19c0.26,0.05,0.51,0.1,0.77,0.16
			c0.31,0.08,0.62,0.18,0.93,0.27c0.24,0.07,0.48,0.13,0.72,0.22c0.32,0.11,0.63,0.25,0.95,0.38c0.21,0.09,0.43,0.16,0.64,0.26
			c0.35,0.16,0.68,0.35,1.02,0.54c0.17,0.09,0.34,0.17,0.51,0.27c0.5,0.3,0.98,0.63,1.46,1c1.45,1.13,2.62,2.46,3.61,3.94
			c0.66,0.98,1.23,2.03,1.75,3.12c2.85,6,4.03,13.32,8.09,18.7c0.78,1.03,1.65,1.97,2.58,2.83c0.31,0.29,0.63,0.56,0.95,0.83
			c0.65,0.54,1.33,1.04,2.02,1.52c0.35,0.24,0.7,0.47,1.06,0.69c0.72,0.45,1.45,0.87,2.2,1.28s1.51,0.79,2.28,1.16
			c0.77,0.37,1.54,0.73,2.32,1.07c1.17,0.52,2.33,1.02,3.49,1.52c0.8,0.34,1.6,0.69,2.4,1.04c2.4,1.05,4.78,2.17,7.02,3.52
			c0.87,0.52,1.91,1.14,2.93,1.84c0.34,0.23,0.68,0.48,1,0.73c1.14,0.88,2.17,1.88,2.76,2.98c0.08,0.16,0.16,0.32,0.22,0.48
			c0.19,0.48,0.37,0.96,0.53,1.46c0.78,2.47,1.12,5.12,1.2,7.83c0.05,1.63,0.01,3.28-0.08,4.93c-0.12,2.2-0.33,4.39-0.53,6.51
			c-0.15,1.59-0.29,3.15-0.38,4.64c-0.06,1.03-0.12,2.07-0.16,3.11c-0.06,1.56-0.08,3.12-0.02,4.67c0.06,1.55,0.19,3.11,0.43,4.64
			c0.08,0.49,0.16,0.97,0.26,1.46c0.2,0.97,0.45,1.93,0.75,2.87c0.15,0.47,0.32,0.93,0.5,1.39c0.17,0.42,0.36,0.83,0.53,1.21
			c0.09,0.19,0.17,0.38,0.25,0.56c0.24,0.55,0.43,1.06,0.46,1.55C392.56,250.27,392.56,250.27,392.56,250.28z"/>
		<polygon class="st2" points="264.36,150.88 264.36,180.86 264.36,180.86 275.63,180.86 275.63,150.88 275.63,150.88 		"/>
		<polygon class="st2" points="338.12,176.78 330.16,168.81 308.95,189.99 316.9,197.96 338.12,176.78 338.12,176.78 		"/>
		<polygon class="st2" points="226.44,189.4 226.44,189.4 205.22,168.22 197.26,176.19 218.48,197.37 218.48,197.37 218.48,197.37 
			218.49,197.36 226.44,189.4 		"/>
		<polygon class="st2" points="369.87,221.65 367.31,210.68 338.12,217.51 340.68,228.48 369.87,221.65 369.87,221.65 		"/>
		<polygon class="st2" points="197.26,217.51 197.26,217.51 168.07,210.68 165.51,221.65 194.7,228.48 194.7,228.48 194.7,228.48 
			196.66,220.07 197.26,217.51 		"/>
	</g>
	<ellipse class="st0" cx="810.54" cy="272.31" rx="179.75" ry="183.53"/>
	<path class="st2" d="M813.31,93.29c92.72,0,167.89,79.96,167.89,178.59s-75.17,178.59-167.89,178.59s-167.89-79.96-167.89-178.59
		S720.59,93.29,813.31,93.29 M813.31,74.14c-25.39,0-50.02,5.29-73.21,15.72c-22.3,10.03-42.31,24.37-59.46,42.62
		c-35.06,37.3-54.37,86.8-54.37,139.4s19.31,102.1,54.37,139.4c17.15,18.25,37.16,32.59,59.46,42.62
		c23.18,10.43,47.82,15.72,73.21,15.72c25.39,0,50.02-5.29,73.21-15.72c22.3-10.03,42.31-24.37,59.46-42.62
		c35.06-37.3,54.37-86.8,54.37-139.4s-19.31-102.1-54.37-139.4c-17.15-18.25-37.16-32.59-59.46-42.62
		C863.33,79.43,838.7,74.14,813.31,74.14L813.31,74.14z"/>
	<g>
		<path class="st2" d="M725.26,372.28h9.64v13.02h12.37v-13.02h9.64v34.78h-9.64v-13.22H734.9v13.22h-9.64V372.28z"/>
		<path class="st2" d="M761.87,389.76v-0.1c0-9.99,8.05-18.08,18.78-18.08s18.68,8,18.68,17.99v0.1c0,9.99-8.05,18.08-18.78,18.08
			S761.87,399.75,761.87,389.76z M789.49,389.76v-0.1c0-5.02-3.63-9.39-8.94-9.39c-5.27,0-8.79,4.27-8.79,9.29v0.1
			c0,5.02,3.63,9.39,8.89,9.39C785.97,399.06,789.49,394.78,789.49,389.76z"/>
		<path class="st2" d="M803.9,391.8v-19.53h9.79v19.33c0,5.02,2.53,7.4,6.41,7.4c3.88,0,6.41-2.29,6.41-7.15v-19.58h9.79v19.28
			c0,11.23-6.41,16.15-16.3,16.15S803.9,402.68,803.9,391.8z"/>
		<path class="st2" d="M839.36,401.89l5.37-6.41c3.43,2.73,7.25,4.17,11.28,4.17c2.58,0,3.97-0.89,3.97-2.38v-0.1
			c0-1.44-1.14-2.24-5.86-3.33c-7.4-1.69-13.12-3.78-13.12-10.93v-0.1c0-6.46,5.12-11.13,13.46-11.13c5.91,0,10.53,1.59,14.31,4.62
			l-4.82,6.81c-3.18-2.24-6.66-3.43-9.74-3.43c-2.34,0-3.48,0.99-3.48,2.24v0.1c0,1.59,1.19,2.29,6.01,3.38
			c8,1.74,12.97,4.32,12.97,10.83v0.1c0,7.1-5.61,11.33-14.06,11.33C849.5,407.65,843.64,405.71,839.36,401.89z"/>
		<path class="st2" d="M874.39,372.28h27.97v8.2h-18.43v5.27h16.69v7.6h-16.69v5.51h18.68v8.2h-28.22V372.28z"/>
	</g>
	<g>
		<path class="st2" d="M1012.43,360.85H614.89c-8.91,0-16.13-7.22-16.13-16.13v-29.47c0-8.91,7.22-16.13,16.13-16.13h397.54
			c8.91,0,16.13,7.22,16.13,16.13v29.47C1028.56,353.62,1021.34,360.85,1012.43,360.85z"/>
	</g>
	<g>
		<path class="st0" d="M654.05,310.2h15.82c14.64,0,23.14,8.44,23.14,20.27v0.12c0,11.83-8.61,20.62-23.37,20.62h-15.58V310.2z
			 M670.05,341.13c6.79,0,11.31-3.75,11.31-10.37v-0.12c0-6.56-4.51-10.37-11.31-10.37h-4.63v20.85H670.05z"/>
		<path class="st0" d="M698.34,333.22V310.2h11.54v22.79c0,5.92,2.99,8.73,7.56,8.73c4.57,0,7.56-2.7,7.56-8.44V310.2h11.54v22.73
			c0,13.24-7.56,19.04-19.21,19.04S698.34,346.05,698.34,333.22z"/>
		<path class="st0" d="M743.28,310.2h12.01l9.78,15.88l9.78-15.88h12.01v41h-11.31v-23.55l-10.49,16.05h-0.23l-10.43-15.93v23.43
			h-11.13V310.2z"/>
		<path class="st0" d="M794.12,310.2h17.57c10.37,0,17.05,5.33,17.05,14.41v0.12c0,9.67-7.44,14.76-17.63,14.76h-5.62v11.72h-11.36
			V310.2z M810.88,330.58c4.04,0,6.5-2.11,6.5-5.33v-0.12c0-3.51-2.46-5.39-6.56-5.39h-5.33v10.84H810.88z"/>
		<path class="st0" d="M833.55,310.2h11.36v31.05h19.86v9.96h-31.22V310.2z"/>
		<path class="st0" d="M869.87,310.2h11.42v41h-11.42V310.2z"/>
		<path class="st0" d="M888.79,310.2h10.6l16.87,21.67V310.2h11.25v41h-9.96l-17.51-22.49v22.49h-11.25V310.2z"/>
		<path class="st0" d="M933.37,330.82v-0.12c0-11.95,9.37-21.32,22.08-21.32c7.21,0,12.3,2.23,16.64,5.98l-6.68,8.02
			c-2.93-2.46-5.86-3.87-9.9-3.87c-5.92,0-10.49,4.98-10.49,11.25v0.12c0,6.62,4.63,11.36,11.13,11.36c2.75,0,4.86-0.58,6.56-1.7
			v-4.98h-8.08v-8.32h18.86v18.45c-4.33,3.57-10.37,6.33-17.81,6.33C942.92,352.02,933.37,343.23,933.37,330.82z"/>
	</g>
	<path class="st0" d="M944.68,263.7l0.17,0.55c-0.3,0.09-0.59,0.15-0.9,0.19l-0.03-0.62L944.68,263.7z"/>
	<path class="st0" d="M943.95,264.44c-0.22,0.03-0.43,0.04-0.65,0.04v-0.56c0.17-0.03,0.34-0.05,0.51-0.08L943.95,264.44z"/>
	<path class="st3" d="M934.06,248.58c-0.18-0.38-0.36-0.79-0.53-1.21c-0.18-0.46-0.35-0.92-0.5-1.39c-0.31-0.94-0.55-1.9-0.75-2.87
		c-0.1-0.48-0.19-0.97-0.26-1.46c-0.24-1.54-0.37-3.09-0.43-4.64c-0.06-1.55-0.04-3.11,0.02-4.67c0.04-1.04,0.1-2.07,0.16-3.11
		c0.09-1.49,0.23-3.05,0.38-4.64c0.2-2.12,0.41-4.32,0.53-6.51c0.09-1.65,0.13-3.3,0.08-4.93c-0.08-2.71-0.42-5.37-1.2-7.83
		c-0.16-0.49-0.33-0.98-0.53-1.46c-0.07-0.16-0.14-0.32-0.22-0.48c-0.59-1.1-1.61-2.09-2.76-2.98c-0.33-0.25-0.66-0.5-1-0.73
		c-1.02-0.7-2.06-1.32-2.93-1.84c-2.25-1.35-4.62-2.47-7.02-3.52c-0.8-0.35-1.6-0.7-2.4-1.04c-1.15-0.5-2.32-1-3.49-1.52
		c-0.78-0.35-1.55-0.7-2.32-1.07c-0.77-0.37-1.53-0.76-2.28-1.16s-1.48-0.83-2.2-1.28c-0.36-0.22-0.71-0.46-1.06-0.69
		c-0.7-0.48-1.37-0.98-2.02-1.52c-0.32-0.27-0.64-0.54-0.95-0.83c-0.93-0.86-1.8-1.79-2.58-2.83c-4.06-5.38-5.24-12.7-8.09-18.7
		c-0.52-1.09-1.09-2.14-1.75-3.12c-0.99-1.48-2.16-2.81-3.61-3.94c-0.47-0.37-0.96-0.7-1.46-1c-0.17-0.1-0.34-0.18-0.51-0.27
		c-0.34-0.19-0.67-0.38-1.02-0.54c-0.21-0.1-0.43-0.17-0.64-0.26c-0.31-0.13-0.63-0.27-0.95-0.38c-0.23-0.08-0.48-0.14-0.72-0.22
		c-0.31-0.09-0.61-0.19-0.93-0.27c-0.25-0.06-0.51-0.11-0.77-0.16c-0.31-0.06-0.61-0.13-0.93-0.19c-0.27-0.04-0.54-0.08-0.81-0.11
		c-0.31-0.04-0.62-0.09-0.93-0.12c-0.28-0.03-0.56-0.04-0.84-0.07c-0.31-0.02-0.62-0.05-0.94-0.06c-0.28-0.01-0.57-0.02-0.86-0.03
		c-0.32-0.01-0.63-0.02-0.95-0.02c-0.32,0-0.65,0-0.97,0.01c-0.26,0-0.53,0.01-0.79,0.01c-0.34,0.01-0.67,0.02-1.01,0.04
		c-0.26,0.01-0.51,0.02-0.77,0.03c-0.36,0.02-0.73,0.04-1.09,0.06c-0.24,0.01-0.47,0.03-0.71,0.04c-0.42,0.03-0.85,0.05-1.27,0.08
		c-0.42,0.03-0.84,0.06-1.26,0.08c-0.33,0.02-0.67,0.04-1,0.07c-0.41,0.03-0.83,0.05-1.24,0.07c-0.19,0.01-0.38,0.02-0.56,0.03
		c-0.59,0.03-1.19,0.06-1.77,0.07c-0.1,0-0.2,0-0.3,0c-0.47,0.01-0.94,0.02-1.41,0.02c-0.03,0-0.06,0-0.08,0
		c-1.09,0-2.18-0.05-3.27-0.13c-0.54-0.04-1.09-0.1-1.63-0.16c-4.33-0.51-8.58-1.66-12.57-3.42c-1.5-0.66-2.96-1.4-4.37-2.22
		c-0.94-0.55-1.86-1.13-2.76-1.75c-4.31-2.97-8.39-6.84-12.99-9.09c-1.25-0.61-2.55-1.11-3.89-1.43c-0.9-0.21-1.82-0.35-2.77-0.4
		c-0.4-0.02-0.79-0.01-1.18,0.01c-0.25,0.01-0.5,0.02-0.75,0.04c-0.27,0.02-0.54,0.05-0.81,0.09c-0.24,0.03-0.49,0.07-0.73,0.11
		c-0.27,0.05-0.53,0.11-0.8,0.17c-0.24,0.06-0.48,0.11-0.71,0.18c-0.26,0.07-0.52,0.16-0.78,0.24c-0.23,0.08-0.46,0.15-0.69,0.24
		c-0.26,0.1-0.51,0.2-0.77,0.31c-0.23,0.09-0.45,0.19-0.68,0.29c-0.25,0.11-0.51,0.24-0.76,0.36c-0.22,0.11-0.44,0.22-0.66,0.33
		c-0.25,0.13-0.5,0.27-0.75,0.41c-0.22,0.12-0.44,0.24-0.65,0.37c-0.25,0.15-0.5,0.3-0.75,0.46c-0.21,0.13-0.42,0.26-0.63,0.39
		c-0.25,0.16-0.5,0.33-0.75,0.5c-0.21,0.14-0.41,0.27-0.62,0.41c-0.26,0.17-0.51,0.35-0.76,0.53c-0.2,0.14-0.4,0.28-0.59,0.42
		c-0.27,0.19-0.53,0.38-0.8,0.58c-0.19,0.14-0.38,0.27-0.57,0.41c-0.34,0.25-0.68,0.5-1.02,0.75c-0.29,0.21-0.58,0.42-0.86,0.63
		c-0.25,0.18-0.5,0.37-0.75,0.55c-0.24,0.18-0.49,0.35-0.73,0.52c-0.21,0.15-0.42,0.3-0.62,0.44c-0.28,0.2-0.56,0.38-0.84,0.58
		c-0.17,0.12-0.35,0.24-0.52,0.36c-0.43,0.29-0.86,0.57-1.3,0.84c-0.02,0.01-0.04,0.03-0.06,0.04c-0.69,0.43-1.41,0.83-2.13,1.21
		c-0.14,0.07-0.28,0.15-0.42,0.22c-0.7,0.36-1.41,0.7-2.13,1.02c-0.14,0.06-0.27,0.12-0.41,0.18c-0.71,0.3-1.42,0.59-2.14,0.85
		c-0.06,0.02-0.11,0.04-0.17,0.06c-0.76,0.27-1.52,0.51-2.29,0.73c-0.16,0.05-0.32,0.09-0.48,0.14c-0.76,0.21-1.53,0.4-2.3,0.56
		c-0.13,0.03-0.26,0.05-0.39,0.08c-0.73,0.15-1.47,0.28-2.22,0.39c-0.1,0.01-0.19,0.03-0.29,0.04c-0.79,0.11-1.58,0.19-2.38,0.25
		c-0.17,0.01-0.34,0.02-0.5,0.04c-0.79,0.05-1.59,0.08-2.38,0.08c-0.03,0-0.06,0-0.1,0c-0.1,0-0.2-0.01-0.3-0.01
		c-0.58,0-1.16-0.02-1.73-0.05c-0.19-0.01-0.38-0.02-0.57-0.03c-0.7-0.05-1.4-0.11-2.09-0.19c-0.46-0.06-0.92-0.12-1.39-0.19
		c-0.12-0.02-0.24-0.04-0.37-0.06c-0.4-0.06-0.81-0.13-1.21-0.2c-0.05-0.01-0.1-0.02-0.15-0.03c-0.52-0.09-1.04-0.18-1.56-0.28
		c-0.41-0.07-0.82-0.14-1.22-0.21c-0.09-0.02-0.19-0.03-0.28-0.05c-0.45-0.08-0.9-0.15-1.35-0.22c-0.11-0.02-0.22-0.03-0.33-0.05
		c-0.38-0.05-0.76-0.1-1.14-0.15c-0.1-0.01-0.2-0.02-0.29-0.04c-0.45-0.05-0.9-0.09-1.35-0.12c-0.1-0.01-0.19-0.01-0.29-0.02
		c-0.37-0.02-0.75-0.03-1.12-0.04c-0.12,0-0.24,0-0.35,0c-0.21,0-0.41,0.01-0.62,0.02c-0.15,0.01-0.31,0.01-0.46,0.02
		c-0.21,0.01-0.43,0.03-0.64,0.06c-0.14,0.01-0.29,0.02-0.43,0.04c-0.24,0.03-0.47,0.07-0.7,0.11c-0.12,0.02-0.24,0.04-0.36,0.06
		c-0.35,0.07-0.71,0.15-1.06,0.24c-7.79,2.11-12.16,10.26-14.92,17.84c-0.69,1.9-1.36,3.84-2.08,5.77
		c-0.36,0.96-0.73,1.92-1.13,2.87c-0.59,1.42-1.23,2.81-1.94,4.13c-0.71,1.33-1.5,2.6-2.4,3.77c-0.6,0.79-1.24,1.53-1.94,2.23
		c-0.7,0.7-1.45,1.35-2.27,1.94c-4.77,3.46-10.97,4.37-16.61,6.17c-3.38,1.08-6.56,2.47-9.11,4.92c-2,1.92-3.35,4.24-4.24,6.78
		c-0.36,1.02-0.64,2.07-0.86,3.15c-0.33,1.62-0.52,3.29-0.62,4.99c-0.19,3.4,0.01,6.9,0.28,10.22c0.36,4.47,0.61,9.01-0.02,13.46
		c-0.13,0.94-0.28,1.77-0.51,2.53c-0.3,1.02-0.73,1.93-1.45,2.88c-0.18,0.24-0.38,0.48-0.6,0.72c-0.34,0.38-0.77,0.95-1.14,1.59
		c-0.07,0.13-0.14,0.26-0.21,0.39c-0.08,0.17-0.16,0.34-0.23,0.52c-0.08,0.21-0.15,0.42-0.2,0.62c-0.04,0.17-0.07,0.33-0.09,0.5
		c-0.08,0.81,0.17,1.55,1.03,2.03c0.46,0.26,1.24,0.51,2.14,0.74c0.54,0.14,1.12,0.27,1.71,0.38c1.56,0.31,3.13,0.55,3.94,0.63
		c0.6,0.06,1.11,0.11,1.55,0.15c0.63,0.06,1.15,0.11,1.64,0.15c0.12,0.01,0.24,0.02,0.36,0.04c0.47,0.05,0.94,0.1,1.5,0.17
		c0.14,0.02,0.29,0.04,0.44,0.06c0.46,0.06,0.98,0.13,1.59,0.22c5.86,0.86,11.73,1.65,17.61,2.37c2.94,0.36,5.88,0.71,8.83,1.04
		c5.89,0.66,11.78,1.25,17.68,1.77c0.07,0.01,0.14,0.01,0.22,0.02c0-0.06-0.01-0.11-0.01-0.17c-0.04-0.94-0.07-1.89-0.07-2.84
		c0-13.11,3.99-25.29,10.81-35.39c6.26-9.26,14.9-16.78,25.05-21.67c0.92-0.44,1.86-0.87,2.8-1.27c3.79-1.6,7.76-2.85,11.88-3.69
		c4.12-0.84,8.39-1.29,12.76-1.29c2.18,0,4.34,0.11,6.46,0.33c1.42,0.14,2.82,0.34,4.21,0.57c2.08,0.35,4.13,0.81,6.13,1.36
		c1.34,0.37,2.66,0.78,3.96,1.23c0.65,0.23,1.3,0.46,1.94,0.71c3.2,1.23,6.28,2.72,9.21,4.43l-10.64,10.64h0
		c-1.61-0.78-3.26-1.47-4.96-2.08c-2.55-0.9-5.19-1.6-7.92-2.07c-2.72-0.47-5.52-0.72-8.38-0.72c-1.69,0-3.35,0.09-4.99,0.25
		c-10.67,1.09-20.34,5.62-27.87,12.47c-4.05,3.69-7.49,8.04-10.13,12.89c-1.13,2.08-2.11,4.25-2.94,6.49
		c-1.1,2.99-1.91,6.13-2.41,9.36c-0.37,2.43-0.56,4.91-0.56,7.44c0,1.4,0.06,2.78,0.18,4.15c0.8,0.06,1.61,0.12,2.41,0.17
		c0.89,0.06,1.79,0.11,2.68,0.17c1.87,0.12,3.75,0.23,5.63,0.34c1.05,0.06,2.1,0.11,3.15,0.17c1.74,0.09,3.48,0.18,5.22,0.26
		c1.08,0.05,2.16,0.1,3.24,0.14c1.75,0.07,3.51,0.14,5.26,0.2c1.03,0.04,2.06,0.07,3.1,0.1c1.93,0.06,3.86,0.11,5.79,0.15
		c0.84,0.02,1.69,0.04,2.53,0.06c2.77,0.06,5.54,0.1,8.31,0.13c0.26,0,0.52,0,0.78,0c2.46,0.02,4.93,0.03,7.39,0.03
		c3.23,0,6.45-0.02,9.68-0.06c10.74-0.14,21.47-0.5,32.19-1.07c0.17-1.62,0.27-3.26,0.27-4.93c0-4.05-0.5-7.99-1.43-11.75
		c-0.62-2.51-1.44-4.94-2.43-7.29c-0.5-1.17-1.04-2.32-1.62-3.44c-0.29-0.56-0.59-1.12-0.91-1.66c-0.94-1.64-1.97-3.23-3.09-4.75
		l10.29-10.29c3.56,4.51,6.52,9.53,8.76,14.92c1.1,2.65,2.04,5.39,2.78,8.21c0.4,1.54,0.74,3.11,1.03,4.7
		c0.35,1.93,0.62,3.89,0.79,5.87c0.16,1.81,0.24,3.64,0.24,5.49c0,1.35-0.06,2.69-0.15,4.02c2.86-0.21,5.72-0.42,8.58-0.66
		c6.99-0.58,13.97-1.26,20.93-2.03c2.32-0.26,4.64-0.53,6.96-0.81c4.11-0.49,8.25-0.78,12.36-1.2c1.37-0.14,2.74-0.3,4.11-0.49
		c2.61-0.36,5.87-0.23,8.23-1.56c0.61-0.34,1.02-0.69,1.27-1.05c0.09-0.12,0.15-0.24,0.21-0.36c0.13-0.3,0.17-0.61,0.15-0.93
		c0,0,0-0.01,0-0.01c-0.04-0.49-0.22-1-0.46-1.55C934.23,248.96,934.15,248.78,934.06,248.58z"/>
	<path class="st2" d="M950.62,255.98c-0.04-0.34-0.09-0.68-0.13-1.01c-0.17-1.32-0.35-2.55-0.52-3.7c-0.26-1.73-0.53-3.27-0.79-4.7
		c-0.18-1-0.36-1.94-0.54-2.83c-0.07-0.34-0.13-0.68-0.2-1.01c-0.02-0.08-0.03-0.17-0.05-0.25c-0.07-0.33-0.13-0.65-0.2-0.97
		c-0.21-1.04-0.41-2.05-0.6-3.06c-0.07-0.39-0.14-0.77-0.21-1.16c-0.1-0.58-0.2-1.17-0.29-1.77c-0.19-1.2-0.35-2.44-0.49-3.78
		c-0.11-1.12-0.21-2.3-0.28-3.59c-0.01-0.26-0.03-0.52-0.04-0.79c-0.03-0.53-0.05-1.08-0.07-1.65c-0.04-1.42-0.07-2.96-0.06-4.66
		c0-1.02,0.02-2.09,0.04-3.22c0.01-0.38,0.02-0.76,0.03-1.16c0.13-4.71,0.43-10.44,0.96-17.65c0.3-4.11-1.54-7.1-4.55-9.46
		c-0.33-0.26-0.68-0.52-1.05-0.76c-1.09-0.74-2.29-1.42-3.58-2.05c-0.43-0.21-0.87-0.41-1.31-0.61c-2.23-1-4.66-1.89-7.11-2.75
		c-1.96-0.69-3.95-1.36-5.86-2.06c-0.96-0.35-1.9-0.71-2.81-1.07c-3.2-1.29-6.06-2.72-8.13-4.54c-6.74-5.89-8.19-15.71-12.91-23.31
		c-0.56-0.91-1.18-1.78-1.83-2.62c-0.66-0.84-1.36-1.64-2.11-2.41c-1.12-1.15-2.32-2.21-3.61-3.17c-1.71-1.28-3.55-2.39-5.48-3.29
		c-2.42-1.13-4.98-1.94-7.62-2.39c0,0-0.01,0-0.01,0c-0.6-0.1-1.2-0.18-1.8-0.25c-0.2-0.02-0.41-0.04-0.61-0.06
		c-0.4-0.04-0.81-0.07-1.22-0.1c-0.24-0.02-0.48-0.03-0.71-0.04c-0.38-0.02-0.75-0.03-1.13-0.04c-0.25-0.01-0.49-0.01-0.74-0.01
		c-0.16,0-0.32-0.01-0.49-0.01c-0.11,0-0.22,0.01-0.32,0.01c-1.05,0.01-2.11,0.03-3.17,0.08c-0.19,0.01-0.38,0.02-0.57,0.03
		c-1.09,0.05-2.18,0.12-3.27,0.18c-1.18,0.07-2.37,0.14-3.55,0.2c-0.02,0-0.05,0-0.07,0c-1.12,0.05-2.24,0.08-3.35,0.09
		c-0.12,0-0.24,0-0.35,0c-0.09,0-0.18,0-0.27,0c-0.51,0-1.01-0.02-1.52-0.03c-0.11,0-0.23-0.01-0.34-0.01
		c-0.56-0.03-1.12-0.06-1.67-0.11c-0.12-0.01-0.23-0.02-0.35-0.03c-0.51-0.05-1.02-0.11-1.53-0.18c-0.08-0.01-0.15-0.02-0.23-0.03
		c-0.55-0.08-1.11-0.19-1.66-0.3c-0.13-0.03-0.25-0.06-0.38-0.08c-0.56-0.13-1.12-0.26-1.68-0.43c0,0,0,0,0,0
		c-1.55-0.46-3.05-1.07-4.5-1.79c-1.82-0.89-3.57-1.95-5.28-3.1c-6.17-4.11-11.88-9.3-18.52-11.68c-0.74-0.26-1.49-0.49-2.25-0.68
		s-1.54-0.34-2.33-0.45c-0.4-0.05-0.8-0.09-1.2-0.12c-0.48-0.03-0.95-0.05-1.42-0.05c-0.02,0-0.04,0-0.06,0
		c-0.25,0-0.5,0.01-0.76,0.02c-0.16,0.01-0.33,0.01-0.49,0.02c-0.33,0.02-0.66,0.05-0.98,0.09c-0.1,0.01-0.2,0.02-0.31,0.03
		c-0.43,0.05-0.86,0.12-1.28,0.19c-0.01,0-0.03,0.01-0.04,0.01c-0.41,0.07-0.82,0.16-1.22,0.26c-0.11,0.03-0.22,0.06-0.34,0.09
		c-0.3,0.08-0.61,0.15-0.91,0.24c-0.14,0.04-0.27,0.09-0.41,0.13c-0.27,0.08-0.55,0.17-0.82,0.26c-0.15,0.05-0.29,0.11-0.44,0.16
		c-0.26,0.09-0.53,0.19-0.79,0.29c-0.15,0.06-0.3,0.12-0.45,0.18c-0.25,0.1-0.51,0.2-0.76,0.31c-0.16,0.07-0.31,0.14-0.46,0.21
		c-0.25,0.11-0.49,0.22-0.74,0.34c-0.15,0.07-0.31,0.15-0.46,0.22c-0.24,0.12-0.49,0.24-0.73,0.36c-0.15,0.08-0.31,0.16-0.46,0.24
		c-0.24,0.13-0.48,0.25-0.73,0.38c-0.15,0.08-0.31,0.17-0.46,0.25c-0.24,0.13-0.48,0.27-0.72,0.4c-0.15,0.09-0.3,0.17-0.45,0.26
		c-0.25,0.14-0.49,0.28-0.74,0.43c-0.14,0.08-0.29,0.17-0.43,0.26c-0.25,0.15-0.51,0.3-0.76,0.46c-0.13,0.08-0.27,0.16-0.4,0.24
		c-0.27,0.16-0.53,0.33-0.8,0.49c-0.12,0.07-0.24,0.15-0.35,0.22c-0.3,0.19-0.59,0.37-0.89,0.56c-0.07,0.04-0.14,0.09-0.21,0.13
		c-0.85,0.54-1.7,1.08-2.55,1.61c-0.13,0.08-0.27,0.17-0.4,0.25c-0.25,0.16-0.49,0.31-0.74,0.46c-0.16,0.1-0.33,0.2-0.49,0.3
		c-0.22,0.14-0.44,0.27-0.67,0.41c-0.18,0.11-0.37,0.22-0.55,0.33c-0.21,0.12-0.41,0.25-0.62,0.37c-0.19,0.11-0.39,0.23-0.58,0.34
		c-0.2,0.12-0.4,0.23-0.6,0.35c-0.2,0.11-0.4,0.23-0.6,0.34c-0.2,0.11-0.39,0.22-0.59,0.33c-0.21,0.11-0.41,0.22-0.62,0.33
		c-0.19,0.1-0.39,0.21-0.58,0.31c-0.21,0.11-0.43,0.22-0.64,0.32c-0.19,0.1-0.38,0.19-0.58,0.28c-0.22,0.11-0.44,0.21-0.66,0.31
		c-0.19,0.09-0.38,0.18-0.57,0.26c-0.22,0.1-0.45,0.19-0.68,0.29c-0.19,0.08-0.38,0.16-0.57,0.24c-0.23,0.09-0.47,0.18-0.7,0.27
		c-0.18,0.07-0.37,0.14-0.55,0.21c-0.25,0.09-0.5,0.17-0.75,0.25c-0.17,0.06-0.35,0.12-0.52,0.17c-0.28,0.09-0.56,0.16-0.84,0.24
		c-0.15,0.04-0.3,0.09-0.45,0.13c-0.43,0.11-0.86,0.21-1.29,0.3c-0.01,0-0.01,0-0.02,0c-0.54,0.11-1.09,0.21-1.64,0.28
		c-0.18,0.03-0.37,0.04-0.56,0.07c-0.36,0.04-0.72,0.09-1.09,0.12c-0.23,0.02-0.45,0.03-0.68,0.05c-0.32,0.02-0.65,0.05-0.97,0.06
		c-0.24,0.01-0.49,0.01-0.73,0.02c-0.31,0.01-0.62,0.02-0.93,0.02c-0.19,0-0.39,0-0.59-0.01c-0.41,0-0.82-0.01-1.23-0.02
		c-0.23-0.01-0.46-0.02-0.69-0.03c-0.38-0.02-0.76-0.03-1.14-0.05c-0.23-0.01-0.46-0.03-0.7-0.04c-0.39-0.02-0.79-0.05-1.18-0.08
		c-0.22-0.02-0.44-0.03-0.66-0.05c-0.47-0.04-0.95-0.07-1.42-0.11c-0.69-0.05-1.39-0.11-2.08-0.16c-0.05,0-0.1-0.01-0.15-0.01
		c-0.54-0.04-1.08-0.08-1.63-0.11c-0.19-0.01-0.39-0.02-0.58-0.03c-0.41-0.02-0.81-0.04-1.21-0.06c-0.23-0.01-0.45-0.01-0.68-0.02
		c-0.38-0.01-0.75-0.02-1.13-0.02c-0.13,0-0.27-0.01-0.4-0.01c-0.1,0-0.19,0.01-0.29,0.01c-0.42,0-0.85,0.01-1.27,0.03
		c-0.2,0.01-0.4,0.01-0.6,0.02c-0.61,0.03-1.22,0.07-1.84,0.14c0,0-0.01,0-0.01,0c-10.31,1.09-19.88,7.62-24.66,16.81
		c-0.41,0.8-0.79,1.62-1.15,2.45c-0.19,0.44-0.38,0.89-0.56,1.34c-0.35,0.87-0.68,1.74-1,2.63c-1.2,3.31-2.27,6.7-3.72,9.79
		c-1.45,3.09-3.27,5.9-5.96,8.05c-4.05,3.23-9.28,4.29-14.27,5.87c-1.15,0.36-2.29,0.76-3.39,1.21c-1.37,0.56-2.69,1.23-3.95,1.99
		c-0.63,0.38-1.25,0.78-1.85,1.21c-7.82,5.53-13.05,14.76-13.39,24.36c-0.15,4.23,0.57,8.49,0.94,12.71
		c0.29,3.29,0.37,6.55-0.33,9.77c-0.09,0.42-0.2,0.84-0.31,1.26c-0.23,0.83-0.51,1.65-0.82,2.46c-2.01,5.25-5.39,10.09-6.65,15.5
		c-0.13,0.57-0.23,1.14-0.31,1.73c-0.02,0.17-0.05,0.35-0.07,0.52c-0.15,1.39-0.09,2.91,0.58,4.1c0.13,0.24,0.28,0.48,0.47,0.69
		c0.13,0.15,0.26,0.28,0.41,0.4c1.02,0.86,2.42,1.2,3.74,1.49c2.75,0.6,5.51,1.18,8.27,1.73c0.94,0.19,1.89,0.36,2.83,0.55
		c1.82,0.36,3.64,0.72,5.46,1.05c1.11,0.21,2.23,0.39,3.34,0.59c1.66,0.3,3.31,0.6,4.97,0.88c1.19,0.2,2.38,0.38,3.57,0.58
		c1.59,0.26,3.17,0.52,4.76,0.77c1.23,0.19,2.47,0.36,3.7,0.54c1.55,0.23,3.09,0.46,4.64,0.68c1.26,0.18,2.53,0.34,3.8,0.5
		c1.52,0.2,3.04,0.41,4.56,0.6c1.28,0.16,2.56,0.3,3.85,0.45c1.51,0.18,3.02,0.36,4.53,0.53c1.3,0.14,2.59,0.27,3.89,0.41
		c1.5,0.16,2.99,0.32,4.49,0.46c1.32,0.13,2.64,0.24,3.96,0.36c1.48,0.13,2.96,0.27,4.44,0.4c1.33,0.11,2.66,0.21,3.98,0.31
		c1.48,0.11,2.95,0.23,4.43,0.34c1.33,0.09,2.67,0.18,4,0.26c1.47,0.1,2.95,0.19,4.42,0.28c1.34,0.08,2.69,0.14,4.03,0.22
		c1.46,0.08,2.92,0.16,4.39,0.22c1.35,0.06,2.71,0.11,4.06,0.17c1.46,0.06,2.92,0.12,4.38,0.17c1.36,0.05,2.72,0.08,4.07,0.12
		c1.45,0.04,2.91,0.09,4.36,0.12c1.37,0.03,2.74,0.05,4.1,0.08c1.45,0.03,2.89,0.05,4.34,0.07c1.37,0.02,2.74,0.02,4.11,0.03
		c1.45,0.01,2.89,0.02,4.34,0.02c0.41,0,0.82,0.01,1.23,0.01c1.03,0,2.05-0.01,3.08-0.02c1.32,0,2.63-0.01,3.95-0.02
		c1.45-0.01,2.91-0.03,4.36-0.05c1.32-0.02,2.63-0.03,3.95-0.06c1.46-0.03,2.91-0.06,4.37-0.09c1.31-0.03,2.62-0.06,3.94-0.09
		c1.46-0.04,2.93-0.09,4.39-0.14c1.3-0.04,2.61-0.08,3.91-0.13c1.48-0.05,2.95-0.12,4.43-0.18c1.29-0.05,2.59-0.1,3.88-0.16
		c1.48-0.07,2.95-0.14,4.43-0.21c1.29-0.06,2.59-0.13,3.88-0.19c1.48-0.08,2.97-0.17,4.45-0.25c1.29-0.07,2.57-0.15,3.86-0.22
		c1.49-0.09,2.99-0.19,4.48-0.29c1.27-0.08,2.55-0.16,3.82-0.25c1.5-0.1,3-0.22,4.5-0.33c1.27-0.09,2.53-0.18,3.8-0.28
		c1.53-0.12,3.05-0.24,4.57-0.36c1.24-0.1,2.47-0.2,3.71-0.3c1.55-0.13,3.09-0.27,4.64-0.4c1.22-0.11,2.44-0.21,3.66-0.32
		c1.55-0.14,3.1-0.29,4.64-0.43c1.21-0.11,2.43-0.22,3.64-0.34c1.6-0.15,3.2-0.32,4.79-0.48c1.16-0.12,2.31-0.23,3.47-0.35
		c1.68-0.17,3.36-0.35,5.04-0.53c1.08-0.11,2.16-0.22,3.23-0.34c1.84-0.2,3.68-0.41,5.52-0.61c0.91-0.1,1.82-0.2,2.73-0.3
		c2.75-0.31,5.5-0.63,8.24-0.96c0.52-0.06,1.05-0.13,1.58-0.21c1.45-0.21,2.91-0.51,4.25-0.99c0.23-0.08,0.46-0.17,0.68-0.27
		c0.34-0.15,0.67-0.31,1-0.49c0.3-0.17,0.6-0.34,0.88-0.54c0.77-0.54,1.44-1.21,1.96-2.03c0.32-0.5,0.59-1.04,0.81-1.59
		c0.22-0.56,0.39-1.14,0.51-1.73c0.12-0.59,0.19-1.19,0.21-1.79S950.7,256.57,950.62,255.98z M934.78,250.71
		c0.02,0.32-0.02,0.63-0.15,0.93c-0.05,0.12-0.12,0.24-0.21,0.36c-0.26,0.36-0.67,0.71-1.27,1.05c-2.36,1.33-5.62,1.21-8.23,1.56
		c-1.37,0.19-2.74,0.34-4.11,0.49c-4.12,0.43-8.25,0.71-12.36,1.2c-2.32,0.28-4.64,0.55-6.96,0.81c-6.97,0.77-13.95,1.45-20.93,2.03
		c-2.86,0.24-5.72,0.45-8.58,0.66c0.09-1.33,0.15-2.67,0.15-4.02c0-1.85-0.08-3.68-0.24-5.49c-0.17-1.99-0.44-3.94-0.79-5.87
		c-0.29-1.59-0.63-3.15-1.03-4.7c-0.74-2.82-1.68-5.56-2.78-8.21c-2.24-5.39-5.2-10.4-8.76-14.92l-10.29,10.29
		c1.12,1.52,2.15,3.1,3.09,4.75c0.31,0.55,0.62,1.1,0.91,1.66c0.58,1.12,1.13,2.27,1.62,3.44c0.99,2.34,1.81,4.78,2.43,7.29
		c0.93,3.77,1.43,7.7,1.43,11.75c0,1.67-0.1,3.31-0.27,4.93c-10.72,0.57-21.46,0.93-32.19,1.07c-3.22,0.04-6.45,0.06-9.68,0.06
		c-2.46,0-4.93-0.01-7.39-0.03c-0.26,0-0.52,0-0.78,0c-2.77-0.03-5.54-0.07-8.31-0.13c-0.84-0.02-1.69-0.04-2.53-0.06
		c-1.93-0.04-3.86-0.09-5.79-0.15c-1.03-0.03-2.06-0.07-3.1-0.1c-1.75-0.06-3.51-0.13-5.26-0.2c-1.08-0.04-2.16-0.09-3.24-0.14
		c-1.74-0.08-3.48-0.16-5.22-0.26c-1.05-0.05-2.1-0.11-3.15-0.17c-1.88-0.11-3.75-0.22-5.63-0.34c-0.89-0.06-1.79-0.11-2.68-0.17
		c-0.8-0.05-1.61-0.12-2.41-0.17c-0.12-1.37-0.18-2.75-0.18-4.15c0-2.53,0.19-5.01,0.56-7.44c0.5-3.23,1.31-6.36,2.41-9.36
		c0.82-2.25,1.81-4.41,2.94-6.49c2.64-4.85,6.07-9.21,10.13-12.89c7.53-6.85,17.2-11.38,27.87-12.47c1.64-0.17,3.31-0.25,4.99-0.25
		c2.86,0,5.65,0.25,8.38,0.72c2.72,0.47,5.37,1.17,7.92,2.07c1.7,0.6,3.36,1.3,4.96,2.08h0l10.64-10.64c-2.93-1.71-6-3.2-9.21-4.43
		c-0.64-0.25-1.29-0.48-1.94-0.71c-1.3-0.45-2.62-0.86-3.96-1.23c-2.01-0.55-4.05-1.01-6.13-1.36c-1.39-0.24-2.79-0.43-4.21-0.57
		c-2.12-0.22-4.28-0.33-6.46-0.33c-4.37,0-8.64,0.44-12.76,1.29c-4.12,0.84-8.1,2.09-11.88,3.69c-0.95,0.4-1.88,0.82-2.8,1.27
		c-10.15,4.89-18.79,12.41-25.05,21.67c-6.83,10.1-10.81,22.28-10.81,35.39c0,0.95,0.02,1.9,0.07,2.84c0,0.06,0.01,0.11,0.01,0.17
		c-0.07-0.01-0.14-0.01-0.22-0.02c-5.9-0.52-11.8-1.11-17.68-1.77c-2.94-0.33-5.89-0.67-8.83-1.04c-5.88-0.72-11.75-1.51-17.61-2.37
		c-0.62-0.09-1.14-0.16-1.59-0.22c-0.15-0.02-0.3-0.04-0.44-0.06c-0.56-0.07-1.03-0.12-1.5-0.17c-0.12-0.01-0.24-0.02-0.36-0.04
		c-0.49-0.05-1.01-0.09-1.64-0.15c-0.45-0.04-0.95-0.09-1.55-0.15c-0.81-0.08-2.38-0.32-3.94-0.63c-0.58-0.12-1.17-0.25-1.71-0.38
		c-0.9-0.23-1.67-0.48-2.14-0.74c-0.86-0.48-1.11-1.22-1.03-2.03c0.02-0.16,0.05-0.33,0.09-0.5c0.05-0.21,0.12-0.42,0.2-0.62
		c0.07-0.17,0.14-0.35,0.23-0.52c0.07-0.13,0.14-0.27,0.21-0.39c0.36-0.64,0.8-1.21,1.14-1.59c0.22-0.24,0.42-0.48,0.6-0.72
		c0.72-0.95,1.16-1.86,1.45-2.88c0.22-0.77,0.37-1.59,0.51-2.53c0.63-4.46,0.38-8.99,0.02-13.46c-0.27-3.32-0.47-6.82-0.28-10.22
		c0.09-1.7,0.29-3.38,0.62-4.99c0.22-1.08,0.5-2.13,0.86-3.15c0.89-2.54,2.24-4.85,4.24-6.78c2.54-2.45,5.72-3.85,9.11-4.92
		c5.64-1.8,11.84-2.71,16.61-6.17c0.82-0.59,1.57-1.24,2.27-1.94c0.7-0.7,1.34-1.44,1.94-2.23c0.89-1.18,1.68-2.45,2.4-3.77
		c0.71-1.33,1.35-2.72,1.94-4.13c0.39-0.95,0.77-1.9,1.13-2.87c0.72-1.93,1.39-3.87,2.08-5.77c2.76-7.58,7.13-15.73,14.92-17.84
		c0.35-0.1,0.7-0.18,1.06-0.24c0.12-0.02,0.24-0.04,0.36-0.06c0.23-0.04,0.47-0.08,0.7-0.11c0.14-0.02,0.29-0.03,0.43-0.04
		c0.21-0.02,0.43-0.04,0.64-0.06c0.15-0.01,0.31-0.01,0.46-0.02c0.21-0.01,0.41-0.02,0.62-0.02c0.12,0,0.24,0,0.35,0
		c0.37,0,0.75,0.02,1.12,0.04c0.1,0.01,0.19,0.01,0.29,0.02c0.45,0.03,0.9,0.07,1.35,0.12c0.1,0.01,0.19,0.02,0.29,0.04
		c0.38,0.04,0.76,0.09,1.14,0.15c0.11,0.02,0.22,0.03,0.33,0.05c0.45,0.07,0.9,0.14,1.35,0.22c0.09,0.02,0.19,0.03,0.28,0.05
		c0.41,0.07,0.82,0.14,1.22,0.21c0.52,0.09,1.04,0.19,1.56,0.28c0.05,0.01,0.1,0.02,0.15,0.03c0.4,0.07,0.81,0.14,1.21,0.2
		c0.12,0.02,0.24,0.04,0.37,0.06c0.46,0.07,0.92,0.14,1.39,0.19c0.7,0.09,1.39,0.15,2.09,0.19c0.19,0.01,0.38,0.02,0.57,0.03
		c0.58,0.03,1.16,0.05,1.73,0.05c0.1,0,0.2,0.01,0.3,0.01c0.03,0,0.06,0,0.1,0c0.79,0,1.59-0.03,2.38-0.08
		c0.17-0.01,0.34-0.02,0.5-0.04c0.79-0.06,1.59-0.14,2.38-0.25c0.1-0.01,0.19-0.03,0.29-0.04c0.74-0.11,1.48-0.24,2.22-0.39
		c0.13-0.03,0.26-0.05,0.39-0.08c0.77-0.16,1.54-0.35,2.3-0.56c0.16-0.04,0.32-0.09,0.48-0.14c0.77-0.22,1.54-0.46,2.29-0.73
		c0.06-0.02,0.11-0.04,0.17-0.06c0.72-0.26,1.44-0.55,2.14-0.85c0.14-0.06,0.28-0.12,0.41-0.18c0.72-0.32,1.43-0.66,2.13-1.02
		c0.14-0.07,0.28-0.15,0.42-0.22c0.72-0.38,1.43-0.78,2.13-1.21c0.02-0.01,0.04-0.03,0.06-0.04c0.44-0.27,0.87-0.55,1.3-0.84
		c0.17-0.12,0.35-0.24,0.52-0.36c0.28-0.19,0.56-0.38,0.84-0.58c0.21-0.15,0.42-0.3,0.62-0.44c0.24-0.17,0.49-0.34,0.73-0.52
		c0.25-0.18,0.5-0.36,0.75-0.55c0.29-0.21,0.58-0.42,0.86-0.63c0.34-0.25,0.68-0.5,1.02-0.75c0.19-0.14,0.38-0.27,0.57-0.41
		c0.27-0.19,0.53-0.39,0.8-0.58c0.2-0.14,0.4-0.28,0.59-0.42c0.25-0.18,0.51-0.36,0.76-0.53c0.2-0.14,0.41-0.27,0.62-0.41
		c0.25-0.17,0.5-0.33,0.75-0.5c0.21-0.13,0.42-0.26,0.63-0.39c0.25-0.15,0.5-0.31,0.75-0.46c0.22-0.13,0.43-0.25,0.65-0.37
		c0.25-0.14,0.5-0.28,0.75-0.41c0.22-0.12,0.44-0.22,0.66-0.33c0.25-0.12,0.5-0.25,0.76-0.36c0.22-0.1,0.45-0.19,0.68-0.29
		c0.26-0.11,0.51-0.21,0.77-0.31c0.23-0.09,0.46-0.16,0.69-0.24c0.26-0.09,0.52-0.17,0.78-0.24c0.24-0.07,0.47-0.12,0.71-0.18
		c0.26-0.06,0.53-0.12,0.8-0.17c0.24-0.04,0.49-0.08,0.73-0.11c0.27-0.04,0.54-0.07,0.81-0.09c0.25-0.02,0.5-0.03,0.75-0.04
		c0.39-0.01,0.78-0.03,1.18-0.01c0.95,0.05,1.87,0.18,2.77,0.4c1.35,0.32,2.64,0.81,3.89,1.43c4.6,2.25,8.68,6.12,12.99,9.09
		c0.9,0.62,1.82,1.2,2.76,1.75c1.41,0.82,2.87,1.56,4.37,2.22c3.99,1.75,8.24,2.91,12.57,3.42c0.54,0.06,1.08,0.12,1.63,0.16
		c1.09,0.09,2.18,0.13,3.27,0.13c0.03,0,0.06,0,0.08,0c0.47,0,0.94-0.01,1.41-0.02c0.1,0,0.2,0,0.3,0c0.59-0.02,1.18-0.04,1.77-0.07
		c0.19-0.01,0.37-0.02,0.56-0.03c0.41-0.02,0.82-0.05,1.24-0.07c0.33-0.02,0.67-0.04,1-0.07c0.42-0.03,0.84-0.06,1.26-0.08
		c0.42-0.03,0.85-0.06,1.27-0.08c0.24-0.01,0.47-0.03,0.71-0.04c0.36-0.02,0.73-0.04,1.09-0.06c0.26-0.01,0.51-0.02,0.77-0.03
		c0.34-0.01,0.68-0.03,1.01-0.04c0.26-0.01,0.53-0.01,0.79-0.01c0.32,0,0.65-0.01,0.97-0.01c0.32,0,0.63,0.01,0.95,0.02
		c0.29,0.01,0.57,0.01,0.86,0.03c0.32,0.01,0.63,0.04,0.94,0.06c0.28,0.02,0.56,0.04,0.84,0.07c0.31,0.03,0.62,0.08,0.93,0.12
		c0.27,0.04,0.54,0.07,0.81,0.11c0.31,0.05,0.62,0.12,0.93,0.19c0.26,0.05,0.51,0.1,0.77,0.16c0.31,0.08,0.62,0.18,0.93,0.27
		c0.24,0.07,0.48,0.13,0.72,0.22c0.32,0.11,0.63,0.25,0.95,0.38c0.21,0.09,0.43,0.16,0.64,0.26c0.35,0.16,0.68,0.35,1.02,0.54
		c0.17,0.09,0.34,0.17,0.51,0.27c0.5,0.3,0.98,0.63,1.46,1c1.45,1.13,2.62,2.46,3.61,3.94c0.66,0.98,1.23,2.03,1.75,3.12
		c2.85,6,4.03,13.32,8.09,18.7c0.78,1.03,1.65,1.97,2.58,2.83c0.31,0.29,0.63,0.56,0.95,0.83c0.65,0.54,1.33,1.04,2.02,1.52
		c0.35,0.24,0.7,0.47,1.06,0.69c0.72,0.45,1.45,0.87,2.2,1.28s1.51,0.79,2.28,1.16c0.77,0.37,1.54,0.73,2.32,1.07
		c1.17,0.52,2.33,1.02,3.49,1.52c0.8,0.34,1.6,0.69,2.4,1.04c2.4,1.05,4.78,2.17,7.02,3.52c0.87,0.52,1.91,1.14,2.93,1.84
		c0.34,0.23,0.68,0.48,1,0.73c1.14,0.88,2.17,1.88,2.76,2.98c0.08,0.16,0.16,0.32,0.22,0.48c0.19,0.48,0.37,0.96,0.53,1.46
		c0.78,2.47,1.12,5.12,1.2,7.83c0.05,1.63,0.01,3.28-0.08,4.93c-0.12,2.2-0.33,4.39-0.53,6.51c-0.15,1.59-0.29,3.15-0.38,4.64
		c-0.06,1.03-0.12,2.07-0.16,3.11c-0.06,1.56-0.08,3.12-0.02,4.67c0.06,1.55,0.19,3.11,0.43,4.64c0.08,0.49,0.16,0.97,0.26,1.46
		c0.2,0.97,0.45,1.93,0.75,2.87c0.15,0.47,0.32,0.93,0.5,1.39c0.17,0.42,0.36,0.83,0.53,1.21c0.09,0.19,0.17,0.38,0.25,0.56
		c0.24,0.55,0.43,1.06,0.46,1.55C934.78,250.7,934.78,250.71,934.78,250.71z"/>
	<polygon class="st2" points="806.57,151.32 806.57,181.29 806.57,181.29 817.84,181.29 817.84,151.32 817.84,151.32 	"/>
	<polygon class="st2" points="880.33,177.22 872.37,169.24 851.16,190.42 859.12,198.4 880.33,177.22 880.33,177.22 	"/>
	<polygon class="st2" points="768.65,189.83 768.65,189.83 747.43,168.65 739.48,176.63 760.69,197.81 760.69,197.81 760.69,197.81 
		760.7,197.79 768.65,189.83 	"/>
	<polygon class="st2" points="912.08,222.09 909.52,211.12 880.33,217.94 882.9,228.91 912.08,222.09 912.08,222.09 	"/>
	<polygon class="st2" points="739.48,217.94 739.48,217.94 710.29,211.12 707.72,222.09 736.91,228.91 736.91,228.91 736.91,228.91 
		738.88,220.51 739.48,217.94 	"/>
</g>
</svg>
