<?xml version="1.0" encoding="utf-8"?>
<!-- Generator: Adobe Illustrator 23.0.4, SVG Export Plug-In . SVG Version: 6.00 Build 0)  -->
<svg version="1.1" xmlns="http://www.w3.org/2000/svg" xmlns:xlink="http://www.w3.org/1999/xlink" x="0px" y="0px"
	 viewBox="0 0 432 432" style="enable-background:new 0 0 432 432;" xml:space="preserve">
<style type="text/css">
	.st0{fill:#FFFFFF;}
	.st1{fill:#910508;}
	.st2{fill:none;}
</style>
<g id="circle">
	<rect class="st0" width="432" height="432"/>
</g>
<g id="Layer_7">
	<path class="st1" d="M215.67,47.41c87.53,0,158.49,75.48,158.49,168.59S303.2,384.59,215.67,384.59
		c-87.53,0-158.49-75.48-158.49-168.59S128.14,47.41,215.67,47.41 M215.67,29.33c-23.97,0-47.22,4.99-69.11,14.84
		c-21.05,9.47-39.94,23.01-56.13,40.23C57.33,119.61,39.1,166.35,39.1,216s18.23,96.39,51.33,131.6
		c16.19,17.23,35.08,30.76,56.13,40.23c21.89,9.85,45.14,14.84,69.11,14.84s47.22-4.99,69.11-14.84
		c21.05-9.47,39.94-23.01,56.13-40.23c33.1-35.21,51.33-81.94,51.33-131.6s-18.23-96.39-51.33-131.6
		c-16.19-17.23-35.08-30.76-56.13-40.23C262.89,34.32,239.64,29.33,215.67,29.33L215.67,29.33z"/>
</g>
<g id="house">
	<g>
		<path class="st1" d="M132.55,310.78h9.1v12.29h11.68v-12.29h9.1v32.83h-9.1v-12.48h-11.68v12.48h-9.1V310.78z"/>
		<path class="st1" d="M167.11,327.29v-0.09c0-9.43,7.6-17.07,17.73-17.07c10.13,0,17.63,7.55,17.63,16.98v0.09
			c0,9.43-7.6,17.07-17.73,17.07C174.62,344.26,167.11,336.71,167.11,327.29z M193.19,327.29v-0.09c0-4.74-3.42-8.86-8.44-8.86
			c-4.97,0-8.3,4.03-8.3,8.77v0.09c0,4.74,3.42,8.86,8.4,8.86C189.86,336.06,193.19,332.02,193.19,327.29z"/>
		<path class="st1" d="M206.78,329.21v-18.43h9.24v18.25c0,4.74,2.39,6.99,6.05,6.99c3.66,0,6.05-2.16,6.05-6.75v-18.48h9.24v18.2
			c0,10.6-6.05,15.24-15.38,15.24C212.65,344.22,206.78,339.48,206.78,329.21z"/>
		<path class="st1" d="M240.27,338.73l5.06-6.05c3.24,2.58,6.85,3.94,10.65,3.94c2.44,0,3.75-0.84,3.75-2.25v-0.09
			c0-1.36-1.08-2.11-5.53-3.14c-6.99-1.59-12.38-3.56-12.38-10.32v-0.09c0-6.1,4.83-10.51,12.71-10.51c5.58,0,9.94,1.5,13.51,4.36
			l-4.55,6.43c-3-2.11-6.28-3.24-9.19-3.24c-2.21,0-3.28,0.94-3.28,2.11v0.09c0,1.5,1.13,2.16,5.68,3.19
			c7.55,1.64,12.24,4.08,12.24,10.22v0.09c0,6.71-5.3,10.69-13.27,10.69C249.83,344.17,244.3,342.34,240.27,338.73z"/>
		<path class="st1" d="M273.33,310.78h26.41v7.74h-17.4v4.97h15.76v7.18h-15.76v5.21h17.63v7.74h-26.64V310.78z"/>
	</g>
</g>
<g id="red-shape">
	<g>
		<path class="st1" d="M402.74,299.99H29.26c-8.91,0-16.13-7.22-16.13-16.13v-26.02c0-8.91,7.22-16.13,16.13-16.13h373.48
			c8.91,0,16.13,7.22,16.13,16.13v26.02C418.87,292.76,411.65,299.99,402.74,299.99z"/>
	</g>
</g>
<g id="dumpling-words">
	<g>
		<path class="st0" d="M65.33,252.17h14.93c13.82,0,21.84,7.96,21.84,19.13v0.11c0,11.17-8.13,19.47-22.06,19.47H65.33V252.17z
			 M80.43,281.37c6.41,0,10.67-3.54,10.67-9.79v-0.11c0-6.19-4.26-9.79-10.67-9.79h-4.37v19.69H80.43z"/>
		<path class="st0" d="M107.14,273.91v-21.73h10.89v21.51c0,5.58,2.82,8.24,7.13,8.24c4.31,0,7.13-2.54,7.13-7.96v-21.79h10.89
			v21.46c0,12.5-7.13,17.97-18.14,17.97S107.14,286.02,107.14,273.91z"/>
		<path class="st0" d="M149.56,252.17h11.34l9.23,14.99l9.24-14.99h11.34v38.71h-10.67v-22.23l-9.9,15.15h-0.22l-9.84-15.04v22.12
			h-10.51V252.17z"/>
		<path class="st0" d="M197.56,252.17h16.59c9.79,0,16.09,5.03,16.09,13.6v0.11c0,9.12-7.02,13.94-16.65,13.94h-5.31v11.06h-10.73
			V252.17z M213.38,271.42c3.82,0,6.14-1.99,6.14-5.03v-0.11c0-3.32-2.32-5.09-6.19-5.09h-5.03v10.23H213.38z"/>
		<path class="st0" d="M234.78,252.17h10.73v29.31h18.75v9.4h-29.47V252.17z"/>
		<path class="st0" d="M269.07,252.17h10.78v38.71h-10.78V252.17z"/>
		<path class="st0" d="M286.93,252.17h10.01l15.93,20.46v-20.46h10.62v38.71h-9.4l-16.53-21.23v21.23h-10.62V252.17z"/>
		<path class="st0" d="M329.01,271.64v-0.11c0-11.28,8.85-20.13,20.85-20.13c6.8,0,11.61,2.1,15.7,5.64l-6.3,7.58
			c-2.76-2.32-5.53-3.65-9.35-3.65c-5.58,0-9.9,4.7-9.9,10.62v0.11c0,6.25,4.37,10.73,10.51,10.73c2.6,0,4.59-0.55,6.19-1.6v-4.7
			h-7.63v-7.85h17.81v17.42c-4.09,3.37-9.79,5.97-16.81,5.97C338.03,291.66,329.01,283.36,329.01,271.64z"/>
	</g>
</g>
<g id="dumpling-shape">
	<path class="st0" d="M339.68,208.28l0.16,0.52c-0.28,0.09-0.56,0.14-0.85,0.18l-0.03-0.59L339.68,208.28z"/>
	<path class="st0" d="M339,208.98c-0.2,0.02-0.41,0.04-0.61,0.04v-0.53c0.16-0.03,0.32-0.05,0.48-0.08L339,208.98z"/>
	<path class="st2" d="M329.66,194.01c-0.17-0.36-0.34-0.74-0.5-1.14c-0.17-0.43-0.33-0.87-0.48-1.32c-0.29-0.89-0.52-1.79-0.71-2.7
		c-0.09-0.46-0.18-0.92-0.25-1.38c-0.23-1.45-0.35-2.92-0.4-4.38c-0.05-1.47-0.04-2.94,0.02-4.41c0.04-0.98,0.09-1.96,0.15-2.93
		c0.09-1.41,0.22-2.88,0.36-4.38c0.19-2.01,0.38-4.07,0.5-6.15c0.09-1.56,0.13-3.11,0.08-4.65c-0.08-2.56-0.39-5.07-1.13-7.4
		c-0.15-0.47-0.31-0.93-0.5-1.38c-0.06-0.15-0.13-0.3-0.21-0.45c-0.56-1.04-1.52-1.98-2.6-2.81c-0.31-0.24-0.63-0.47-0.95-0.69
		c-0.96-0.66-1.94-1.24-2.76-1.73c-2.12-1.28-4.36-2.33-6.63-3.32c-0.76-0.33-1.51-0.66-2.27-0.98c-1.09-0.47-2.19-0.94-3.29-1.43
		c-0.73-0.33-1.47-0.66-2.19-1.01c-0.73-0.35-1.44-0.71-2.15-1.09c-0.71-0.38-1.4-0.78-2.08-1.21c-0.34-0.21-0.67-0.43-1-0.65
		c-0.66-0.45-1.3-0.92-1.91-1.43c-0.31-0.25-0.61-0.51-0.9-0.78c-0.88-0.81-1.7-1.69-2.44-2.67c-3.83-5.08-4.94-11.99-7.64-17.65
		c-0.49-1.03-1.03-2.02-1.65-2.95c-0.93-1.39-2.04-2.65-3.41-3.72c-0.45-0.35-0.9-0.66-1.37-0.94c-0.16-0.09-0.32-0.17-0.48-0.26
		c-0.32-0.18-0.63-0.36-0.96-0.51c-0.2-0.09-0.4-0.16-0.61-0.25c-0.3-0.12-0.59-0.25-0.89-0.36c-0.22-0.08-0.45-0.14-0.68-0.2
		c-0.29-0.09-0.58-0.18-0.88-0.26c-0.24-0.06-0.48-0.1-0.72-0.15c-0.29-0.06-0.58-0.13-0.87-0.18c-0.25-0.04-0.51-0.07-0.76-0.11
		c-0.29-0.04-0.58-0.08-0.88-0.11c-0.26-0.03-0.53-0.04-0.79-0.06c-0.3-0.02-0.59-0.05-0.89-0.06c-0.27-0.01-0.54-0.02-0.81-0.02
		c-0.3-0.01-0.59-0.02-0.89-0.02c-0.3,0-0.61,0-0.92,0.01c-0.25,0-0.5,0-0.75,0.01c-0.32,0.01-0.64,0.02-0.96,0.04
		c-0.24,0.01-0.49,0.02-0.73,0.03c-0.34,0.02-0.68,0.04-1.03,0.06c-0.22,0.01-0.45,0.02-0.67,0.04c-0.4,0.03-0.8,0.05-1.2,0.08
		c-0.4,0.03-0.79,0.05-1.19,0.08c-0.31,0.02-0.63,0.04-0.94,0.06c-0.39,0.02-0.78,0.05-1.17,0.07c-0.18,0.01-0.35,0.02-0.53,0.03
		c-0.56,0.03-1.12,0.05-1.67,0.07c-0.09,0-0.19,0-0.28,0c-0.45,0.01-0.89,0.02-1.33,0.02c-0.03,0-0.05,0-0.08,0
		c-1.03,0-2.06-0.04-3.08-0.12c-0.51-0.04-1.02-0.09-1.54-0.15c-4.09-0.48-8.1-1.57-11.87-3.23c-1.41-0.62-2.79-1.32-4.12-2.1
		c-0.89-0.52-1.76-1.07-2.61-1.65c-4.07-2.8-7.92-6.46-12.26-8.58c-1.18-0.58-2.4-1.04-3.68-1.35c-0.85-0.2-1.72-0.33-2.62-0.37
		c-0.38-0.02-0.75,0-1.12,0.01c-0.24,0.01-0.47,0.02-0.71,0.04c-0.26,0.02-0.51,0.05-0.77,0.09c-0.23,0.03-0.46,0.06-0.69,0.11
		c-0.25,0.05-0.5,0.1-0.75,0.16c-0.22,0.05-0.45,0.11-0.67,0.17c-0.25,0.07-0.49,0.15-0.74,0.23c-0.22,0.07-0.44,0.14-0.66,0.22
		c-0.24,0.09-0.48,0.19-0.73,0.29c-0.21,0.09-0.43,0.18-0.64,0.27c-0.24,0.11-0.48,0.23-0.71,0.34c-0.21,0.1-0.42,0.2-0.63,0.31
		c-0.24,0.12-0.47,0.26-0.71,0.39c-0.21,0.12-0.41,0.23-0.61,0.35c-0.24,0.14-0.47,0.29-0.71,0.43c-0.2,0.12-0.4,0.24-0.6,0.37
		c-0.24,0.15-0.47,0.31-0.71,0.47c-0.19,0.13-0.39,0.26-0.58,0.39c-0.24,0.17-0.48,0.33-0.72,0.5c-0.19,0.13-0.37,0.26-0.56,0.39
		c-0.25,0.18-0.5,0.36-0.76,0.54c-0.18,0.13-0.36,0.26-0.54,0.39c-0.32,0.24-0.64,0.47-0.97,0.71c-0.27,0.2-0.54,0.4-0.82,0.6
		c-0.24,0.17-0.47,0.35-0.71,0.52c-0.23,0.17-0.46,0.33-0.69,0.49c-0.2,0.14-0.39,0.28-0.59,0.42c-0.26,0.18-0.53,0.36-0.79,0.54
		c-0.16,0.11-0.33,0.23-0.49,0.34c-0.41,0.27-0.82,0.54-1.23,0.79c-0.02,0.01-0.04,0.03-0.06,0.04c-0.66,0.41-1.33,0.78-2.01,1.15
		c-0.13,0.07-0.26,0.14-0.4,0.21c-0.66,0.34-1.33,0.67-2.01,0.97c-0.13,0.06-0.26,0.11-0.39,0.17c-0.67,0.29-1.34,0.56-2.02,0.81
		c-0.05,0.02-0.1,0.04-0.16,0.06c-0.71,0.25-1.44,0.48-2.17,0.69c-0.15,0.04-0.3,0.09-0.46,0.13c-0.72,0.2-1.44,0.38-2.17,0.53
		c-0.12,0.03-0.25,0.05-0.37,0.07c-0.69,0.14-1.39,0.26-2.09,0.36c-0.09,0.01-0.18,0.03-0.27,0.04c-0.74,0.1-1.49,0.18-2.24,0.23
		c-0.16,0.01-0.32,0.02-0.48,0.03c-0.75,0.05-1.5,0.08-2.25,0.08c-0.03,0-0.06,0-0.09,0c-0.09,0-0.19-0.01-0.28-0.01
		c-0.55,0-1.09-0.02-1.64-0.05c-0.18-0.01-0.36-0.02-0.54-0.03c-0.66-0.04-1.32-0.1-1.98-0.18c-0.44-0.05-0.87-0.12-1.31-0.18
		c-0.12-0.02-0.23-0.04-0.35-0.05c-0.38-0.06-0.76-0.12-1.14-0.19c-0.05-0.01-0.1-0.02-0.14-0.02c-0.49-0.09-0.98-0.17-1.47-0.26
		c-0.39-0.07-0.77-0.14-1.16-0.2c-0.09-0.02-0.18-0.03-0.27-0.05c-0.42-0.07-0.85-0.14-1.27-0.2c-0.1-0.02-0.21-0.03-0.31-0.04
		c-0.36-0.05-0.72-0.1-1.07-0.14c-0.09-0.01-0.18-0.02-0.28-0.03c-0.42-0.05-0.85-0.08-1.27-0.11c-0.09-0.01-0.18-0.01-0.27-0.01
		c-0.35-0.02-0.71-0.03-1.06-0.03c-0.11,0-0.22,0-0.33,0c-0.19,0-0.39,0.01-0.58,0.02c-0.14,0.01-0.29,0.01-0.43,0.02
		c-0.2,0.01-0.4,0.03-0.61,0.05c-0.13,0.01-0.27,0.02-0.41,0.04c-0.22,0.03-0.44,0.07-0.66,0.1c-0.11,0.02-0.23,0.03-0.34,0.06
		c-0.33,0.06-0.67,0.14-1,0.23c-7.35,1.99-11.48,9.69-14.08,16.84c-0.65,1.79-1.29,3.63-1.97,5.45c-0.34,0.91-0.69,1.81-1.06,2.71
		c-0.56,1.34-1.16,2.65-1.83,3.9c-0.67,1.25-1.42,2.45-2.26,3.56c-0.56,0.74-1.17,1.45-1.83,2.1c-0.66,0.66-1.37,1.27-2.14,1.83
		c-4.5,3.26-10.35,4.13-15.68,5.82c-3.19,1.02-6.2,2.33-8.6,4.65c-1.89,1.82-3.16,4-4,6.4c-0.34,0.96-0.6,1.95-0.81,2.97
		c-0.31,1.53-0.49,3.11-0.58,4.72c-0.18,3.21,0.01,6.51,0.27,9.65c0.34,4.22,0.58,8.5-0.02,12.71c-0.13,0.89-0.27,1.67-0.48,2.39
		c-0.28,0.96-0.69,1.83-1.37,2.72c-0.17,0.22-0.36,0.45-0.56,0.68c-0.32,0.36-0.73,0.9-1.07,1.51c-0.07,0.12-0.13,0.25-0.2,0.37
		c-0.08,0.16-0.15,0.32-0.21,0.49c-0.08,0.2-0.14,0.39-0.19,0.59c-0.04,0.16-0.07,0.31-0.08,0.47c-0.07,0.76,0.16,1.46,0.98,1.91
		c0.44,0.24,1.17,0.48,2.02,0.7c0.51,0.13,1.06,0.25,1.61,0.36c1.47,0.3,2.96,0.52,3.72,0.6c0.57,0.06,1.04,0.11,1.47,0.15
		c0.6,0.06,1.08,0.1,1.55,0.15c0.11,0.01,0.22,0.02,0.34,0.03c0.45,0.04,0.89,0.09,1.42,0.16c0.13,0.02,0.27,0.03,0.41,0.05
		c0.43,0.06,0.92,0.12,1.5,0.21c5.53,0.81,11.08,1.56,16.63,2.24c2.78,0.34,5.55,0.67,8.33,0.98c5.56,0.62,11.12,1.18,16.69,1.67
		c0.07,0.01,0.14,0.01,0.2,0.02c0-0.05-0.01-0.11-0.01-0.16c-0.04-0.89-0.06-1.78-0.06-2.68c0-12.38,3.76-23.88,10.21-33.41
		c5.91-8.74,14.07-15.84,23.65-20.46c0.87-0.42,1.75-0.82,2.65-1.2c3.57-1.51,7.33-2.69,11.22-3.48c3.89-0.8,7.92-1.21,12.04-1.21
		c2.06,0,4.09,0.1,6.1,0.31c1.34,0.14,2.66,0.32,3.97,0.54c1.96,0.33,3.9,0.77,5.79,1.29c1.26,0.35,2.51,0.74,3.74,1.16
		c0.61,0.21,1.22,0.44,1.83,0.67c3.02,1.16,5.93,2.57,8.69,4.18l-10.05,10.05h0c-1.52-0.74-3.08-1.39-4.69-1.96
		c-2.41-0.85-4.9-1.51-7.47-1.96c-2.57-0.45-5.21-0.68-7.91-0.68c-1.59,0-3.16,0.08-4.71,0.24c-10.07,1.03-19.2,5.31-26.31,11.77
		c-3.83,3.48-7.07,7.59-9.56,12.17c-1.07,1.96-2,4.01-2.77,6.13c-1.04,2.83-1.81,5.78-2.27,8.84c-0.35,2.29-0.53,4.63-0.53,7.02
		c0,1.32,0.06,2.62,0.17,3.91c0.76,0.05,1.52,0.11,2.27,0.16c0.84,0.06,1.69,0.11,2.53,0.16c1.77,0.11,3.54,0.22,5.31,0.32
		c0.99,0.06,1.98,0.11,2.98,0.16c1.64,0.09,3.28,0.17,4.93,0.24c1.02,0.05,2.04,0.09,3.06,0.13c1.66,0.07,3.31,0.13,4.97,0.19
		c0.97,0.03,1.95,0.07,2.92,0.1c1.82,0.06,3.64,0.1,5.47,0.14c0.8,0.02,1.59,0.04,2.39,0.06c2.61,0.05,5.23,0.09,7.84,0.12
		c0.24,0,0.49,0,0.73,0c2.33,0.02,4.65,0.03,6.98,0.03c3.04,0,6.09-0.02,9.13-0.06c10.14-0.13,20.27-0.47,30.39-1.01
		c0.16-1.53,0.25-3.08,0.25-4.65c0-3.82-0.47-7.54-1.35-11.1c-0.59-2.37-1.36-4.67-2.3-6.88c-0.47-1.11-0.98-2.19-1.53-3.25
		c-0.28-0.53-0.56-1.05-0.86-1.57c-0.89-1.55-1.86-3.05-2.91-4.48l9.71-9.71c3.36,4.26,6.15,9,8.27,14.08
		c1.04,2.5,1.93,5.09,2.63,7.75c0.38,1.46,0.7,2.94,0.97,4.43c0.33,1.82,0.59,3.67,0.75,5.54c0.15,1.71,0.22,3.44,0.22,5.18
		c0,1.28-0.06,2.54-0.14,3.8c2.7-0.19,5.4-0.4,8.1-0.62c6.6-0.55,13.18-1.19,19.76-1.91c2.19-0.24,4.38-0.5,6.57-0.76
		c3.88-0.47,7.78-0.73,11.67-1.13c1.3-0.13,2.59-0.28,3.88-0.46c2.46-0.34,5.54-0.22,7.77-1.48c0.58-0.32,0.96-0.65,1.2-0.99
		c0.08-0.11,0.15-0.23,0.2-0.34c0.12-0.28,0.16-0.57,0.14-0.87c0,0,0-0.01,0-0.01c-0.04-0.46-0.21-0.94-0.44-1.46
		C329.82,194.37,329.74,194.19,329.66,194.01z"/>
	<path class="st1" d="M345.3,200.99c-0.04-0.32-0.08-0.64-0.12-0.95c-0.16-1.25-0.33-2.41-0.49-3.5c-0.25-1.63-0.5-3.09-0.75-4.44
		c-0.17-0.94-0.34-1.83-0.51-2.68c-0.06-0.32-0.13-0.64-0.19-0.96c-0.02-0.08-0.03-0.16-0.05-0.23c-0.06-0.31-0.12-0.62-0.18-0.92
		c-0.2-0.99-0.39-1.94-0.57-2.89c-0.07-0.36-0.14-0.73-0.2-1.1c-0.1-0.55-0.19-1.1-0.28-1.67c-0.18-1.13-0.33-2.3-0.46-3.57
		c-0.11-1.05-0.2-2.17-0.27-3.39c-0.01-0.24-0.03-0.49-0.04-0.74c-0.02-0.5-0.04-1.02-0.06-1.56c-0.04-1.34-0.06-2.8-0.05-4.4
		c0-0.96,0.02-1.97,0.04-3.04c0.01-0.36,0.02-0.72,0.03-1.09c0.12-4.44,0.41-9.86,0.91-16.66c0.28-3.88-1.45-6.71-4.3-8.93
		c-0.32-0.25-0.65-0.49-0.99-0.72c-1.03-0.7-2.16-1.34-3.38-1.93c-0.41-0.2-0.82-0.39-1.24-0.58c-2.11-0.95-4.4-1.79-6.71-2.6
		c-1.85-0.65-3.73-1.29-5.53-1.95c-0.9-0.33-1.79-0.67-2.65-1.01c-3.02-1.22-5.72-2.57-7.68-4.28c-6.36-5.56-7.73-14.83-12.19-22.01
		c-0.53-0.86-1.11-1.68-1.73-2.48c-0.62-0.79-1.29-1.55-1.99-2.27c-1.05-1.08-2.19-2.08-3.4-2.99c-1.61-1.21-3.35-2.25-5.18-3.11
		c-2.28-1.07-4.7-1.84-7.19-2.26c0,0-0.01,0-0.01,0c-0.56-0.1-1.13-0.17-1.7-0.24c-0.19-0.02-0.39-0.04-0.58-0.05
		c-0.38-0.04-0.76-0.07-1.15-0.09c-0.22-0.01-0.45-0.02-0.67-0.03c-0.36-0.02-0.71-0.03-1.07-0.04c-0.23-0.01-0.46-0.01-0.7-0.01
		c-0.15,0-0.31-0.01-0.46-0.01c-0.1,0-0.2,0.01-0.3,0.01c-0.99,0.01-1.99,0.03-2.99,0.08c-0.18,0.01-0.36,0.02-0.54,0.03
		c-1.03,0.05-2.06,0.11-3.09,0.17c-1.12,0.07-2.24,0.14-3.35,0.19c-0.02,0-0.04,0-0.07,0c-1.06,0.05-2.11,0.08-3.16,0.08
		c-0.11,0-0.22,0-0.33,0c-0.09,0-0.17,0-0.26,0c-0.48,0-0.95-0.01-1.43-0.03c-0.11,0-0.22-0.01-0.32-0.01
		c-0.53-0.02-1.05-0.06-1.58-0.1c-0.11-0.01-0.22-0.02-0.33-0.03c-0.48-0.05-0.96-0.1-1.44-0.17c-0.07-0.01-0.14-0.02-0.22-0.03
		c-0.52-0.08-1.04-0.18-1.56-0.29c-0.12-0.03-0.24-0.05-0.36-0.08c-0.53-0.12-1.06-0.25-1.58-0.41c0,0,0,0,0,0
		c-1.47-0.44-2.88-1.01-4.25-1.69c-1.71-0.84-3.37-1.85-4.99-2.92c-5.83-3.88-11.21-8.78-17.48-11.02c-0.7-0.25-1.4-0.47-2.12-0.65
		c-0.72-0.18-1.45-0.32-2.2-0.42c-0.37-0.05-0.75-0.09-1.13-0.12c-0.45-0.03-0.89-0.05-1.34-0.05c-0.02,0-0.04,0-0.06,0
		c-0.24,0-0.48,0.01-0.71,0.02c-0.15,0.01-0.31,0.01-0.46,0.01c-0.31,0.02-0.62,0.05-0.93,0.08c-0.1,0.01-0.19,0.02-0.29,0.03
		c-0.41,0.05-0.81,0.11-1.21,0.18c-0.01,0-0.02,0.01-0.04,0.01c-0.39,0.07-0.77,0.15-1.15,0.24c-0.11,0.03-0.21,0.06-0.32,0.08
		c-0.29,0.07-0.57,0.15-0.86,0.23c-0.13,0.04-0.26,0.08-0.39,0.12c-0.26,0.08-0.52,0.16-0.78,0.25c-0.14,0.05-0.27,0.1-0.41,0.15
		c-0.25,0.09-0.5,0.18-0.74,0.27c-0.14,0.06-0.28,0.12-0.43,0.17c-0.24,0.1-0.48,0.19-0.72,0.3c-0.15,0.06-0.29,0.13-0.44,0.2
		c-0.23,0.1-0.47,0.21-0.7,0.32c-0.15,0.07-0.29,0.14-0.44,0.21c-0.23,0.11-0.46,0.22-0.69,0.34c-0.15,0.07-0.29,0.15-0.44,0.23
		c-0.23,0.12-0.46,0.24-0.69,0.36c-0.14,0.08-0.29,0.16-0.43,0.24c-0.23,0.13-0.46,0.25-0.68,0.38c-0.14,0.08-0.28,0.16-0.42,0.24
		c-0.23,0.13-0.46,0.27-0.69,0.4c-0.14,0.08-0.27,0.16-0.41,0.24c-0.24,0.14-0.48,0.29-0.72,0.43c-0.13,0.08-0.25,0.15-0.38,0.23
		c-0.25,0.15-0.5,0.31-0.76,0.47c-0.11,0.07-0.22,0.14-0.33,0.21c-0.28,0.18-0.56,0.35-0.84,0.53c-0.06,0.04-0.13,0.08-0.19,0.12
		c-0.8,0.51-1.61,1.02-2.41,1.52c-0.13,0.08-0.25,0.16-0.38,0.24c-0.23,0.15-0.47,0.29-0.7,0.44c-0.15,0.1-0.31,0.19-0.46,0.29
		c-0.21,0.13-0.42,0.26-0.63,0.39c-0.17,0.11-0.35,0.21-0.52,0.32c-0.2,0.12-0.39,0.23-0.59,0.35c-0.18,0.11-0.37,0.22-0.55,0.32
		c-0.19,0.11-0.38,0.22-0.57,0.33c-0.19,0.11-0.38,0.21-0.57,0.32c-0.19,0.1-0.37,0.21-0.56,0.31c-0.19,0.11-0.39,0.21-0.59,0.31
		c-0.18,0.1-0.37,0.19-0.55,0.29c-0.2,0.1-0.4,0.2-0.61,0.3c-0.18,0.09-0.36,0.18-0.54,0.27c-0.21,0.1-0.41,0.19-0.62,0.29
		c-0.18,0.08-0.36,0.17-0.54,0.25c-0.21,0.09-0.43,0.18-0.64,0.27c-0.18,0.08-0.36,0.15-0.53,0.22c-0.22,0.09-0.44,0.17-0.66,0.25
		c-0.17,0.07-0.35,0.13-0.52,0.2c-0.23,0.08-0.47,0.16-0.71,0.24c-0.16,0.05-0.33,0.11-0.49,0.16c-0.26,0.08-0.53,0.15-0.79,0.23
		c-0.14,0.04-0.28,0.08-0.43,0.12c-0.4,0.1-0.81,0.2-1.22,0.28c-0.01,0-0.01,0-0.02,0c-0.51,0.11-1.03,0.19-1.54,0.27
		c-0.17,0.03-0.35,0.04-0.52,0.06c-0.34,0.04-0.68,0.09-1.03,0.12c-0.21,0.02-0.43,0.03-0.64,0.04c-0.31,0.02-0.61,0.04-0.92,0.06
		c-0.23,0.01-0.46,0.01-0.69,0.02c-0.29,0.01-0.58,0.02-0.87,0.02c-0.18,0-0.37,0-0.55-0.01c-0.39,0-0.77-0.01-1.16-0.02
		c-0.22-0.01-0.43-0.02-0.65-0.03c-0.36-0.01-0.72-0.03-1.08-0.05c-0.22-0.01-0.44-0.03-0.66-0.04c-0.37-0.02-0.74-0.05-1.11-0.08
		c-0.21-0.02-0.41-0.03-0.62-0.05c-0.45-0.03-0.89-0.07-1.34-0.1c-0.66-0.05-1.31-0.1-1.97-0.15c-0.05,0-0.09-0.01-0.14-0.01
		c-0.51-0.04-1.02-0.07-1.54-0.1c-0.18-0.01-0.37-0.02-0.55-0.03c-0.38-0.02-0.76-0.04-1.15-0.05c-0.21-0.01-0.43-0.01-0.64-0.02
		c-0.36-0.01-0.71-0.02-1.07-0.02c-0.13,0-0.25-0.01-0.38-0.01c-0.09,0-0.18,0.01-0.27,0.01c-0.4,0-0.8,0.01-1.2,0.03
		c-0.19,0.01-0.38,0.01-0.57,0.02c-0.58,0.03-1.16,0.07-1.73,0.13c0,0-0.01,0-0.01,0c-9.73,1.03-18.77,7.19-23.28,15.87
		c-0.39,0.75-0.75,1.53-1.09,2.32c-0.18,0.42-0.36,0.84-0.53,1.27c-0.33,0.82-0.64,1.65-0.95,2.48c-1.13,3.13-2.14,6.32-3.51,9.25
		c-1.37,2.92-3.08,5.57-5.63,7.6c-3.82,3.05-8.76,4.05-13.47,5.54c-1.09,0.34-2.16,0.72-3.2,1.14c-1.29,0.53-2.54,1.16-3.73,1.88
		c-0.6,0.36-1.18,0.74-1.75,1.14c-7.38,5.22-12.32,13.93-12.64,23c-0.14,3.99,0.54,8.01,0.89,12c0.27,3.1,0.35,6.19-0.31,9.22
		c-0.09,0.4-0.19,0.79-0.29,1.19c-0.22,0.78-0.48,1.56-0.77,2.32c-1.9,4.96-5.09,9.52-6.28,14.63c-0.12,0.54-0.22,1.08-0.29,1.63
		c-0.02,0.16-0.05,0.33-0.07,0.49c-0.14,1.32-0.08,2.74,0.54,3.88c0.13,0.23,0.27,0.45,0.44,0.65c0.12,0.14,0.25,0.26,0.39,0.38
		c0.96,0.81,2.28,1.13,3.53,1.4c2.6,0.57,5.2,1.11,7.8,1.64c0.89,0.18,1.78,0.34,2.68,0.52c1.72,0.34,3.43,0.68,5.15,0.99
		c1.05,0.19,2.1,0.37,3.15,0.56c1.56,0.28,3.12,0.56,4.69,0.83c1.12,0.19,2.24,0.36,3.37,0.55c1.5,0.24,2.99,0.49,4.49,0.72
		c1.16,0.18,2.33,0.34,3.5,0.51c1.46,0.21,2.92,0.44,4.38,0.64c1.19,0.17,2.39,0.32,3.58,0.47c1.43,0.19,2.87,0.39,4.31,0.56
		c1.21,0.15,2.42,0.29,3.63,0.43c1.43,0.17,2.85,0.34,4.28,0.5c1.22,0.14,2.45,0.26,3.67,0.38c1.41,0.15,2.82,0.3,4.24,0.43
		c1.24,0.12,2.49,0.23,3.73,0.34c1.4,0.13,2.79,0.26,4.19,0.37c1.25,0.1,2.51,0.2,3.76,0.29c1.39,0.11,2.78,0.22,4.18,0.32
		c1.26,0.09,2.52,0.17,3.78,0.25c1.39,0.09,2.78,0.18,4.17,0.26c1.27,0.07,2.54,0.14,3.81,0.2c1.38,0.07,2.76,0.15,4.14,0.21
		c1.28,0.06,2.56,0.11,3.84,0.16c1.38,0.06,2.75,0.11,4.13,0.16c1.28,0.04,2.56,0.08,3.85,0.12c1.37,0.04,2.75,0.08,4.12,0.11
		c1.29,0.03,2.58,0.05,3.87,0.07c1.37,0.02,2.73,0.05,4.1,0.07c1.29,0.02,2.59,0.02,3.88,0.03c1.37,0.01,2.73,0.02,4.1,0.02
		c0.39,0,0.78,0.01,1.16,0.01c0.97,0,1.94-0.01,2.91-0.01c1.24,0,2.48-0.01,3.73-0.02c1.37-0.01,2.75-0.03,4.12-0.05
		c1.24-0.02,2.48-0.03,3.73-0.05c1.37-0.02,2.75-0.06,4.12-0.09c1.24-0.03,2.48-0.06,3.72-0.09c1.38-0.04,2.76-0.08,4.14-0.13
		c1.23-0.04,2.46-0.08,3.69-0.12c1.39-0.05,2.79-0.11,4.18-0.17c1.22-0.05,2.44-0.1,3.66-0.15c1.39-0.06,2.79-0.13,4.18-0.2
		c1.22-0.06,2.44-0.12,3.67-0.18c1.4-0.07,2.8-0.16,4.2-0.24c1.21-0.07,2.43-0.14,3.64-0.21c1.41-0.09,2.82-0.18,4.23-0.27
		c1.2-0.08,2.41-0.15,3.61-0.24c1.42-0.1,2.84-0.2,4.25-0.31c1.19-0.09,2.39-0.17,3.58-0.26c1.44-0.11,2.88-0.23,4.32-0.34
		c1.17-0.09,2.33-0.18,3.5-0.28c1.46-0.12,2.92-0.25,4.38-0.38c1.15-0.1,2.3-0.2,3.45-0.3c1.46-0.13,2.92-0.27,4.38-0.41
		c1.15-0.11,2.29-0.21,3.44-0.32c1.51-0.15,3.02-0.3,4.53-0.45c1.09-0.11,2.18-0.21,3.28-0.33c1.59-0.16,3.17-0.33,4.75-0.5
		c1.02-0.11,2.04-0.21,3.05-0.32c1.74-0.19,3.47-0.38,5.21-0.58c0.86-0.1,1.72-0.19,2.58-0.29c2.6-0.3,5.19-0.6,7.78-0.9
		c0.49-0.06,0.99-0.12,1.5-0.2c1.36-0.2,2.75-0.48,4.02-0.94c0.22-0.08,0.43-0.16,0.64-0.25c0.32-0.14,0.64-0.29,0.94-0.46
		c0.29-0.16,0.57-0.32,0.83-0.51c0.72-0.51,1.35-1.14,1.85-1.91c0.3-0.47,0.56-0.98,0.77-1.51c0.21-0.53,0.37-1.07,0.48-1.63
		c0.11-0.56,0.18-1.13,0.2-1.69S345.37,201.55,345.3,200.99z M330.34,196.02c0.02,0.3-0.02,0.59-0.14,0.87
		c-0.05,0.12-0.12,0.23-0.2,0.34c-0.24,0.34-0.63,0.67-1.2,0.99c-2.23,1.26-5.31,1.14-7.77,1.48c-1.29,0.18-2.59,0.33-3.88,0.46
		c-3.89,0.4-7.79,0.67-11.67,1.13c-2.19,0.26-4.38,0.52-6.57,0.76c-6.58,0.73-13.17,1.37-19.76,1.91c-2.7,0.22-5.4,0.43-8.1,0.62
		c0.08-1.26,0.14-2.52,0.14-3.8c0-1.75-0.08-3.47-0.22-5.18c-0.16-1.87-0.42-3.72-0.75-5.54c-0.27-1.5-0.59-2.98-0.97-4.43
		c-0.7-2.66-1.58-5.24-2.63-7.75c-2.12-5.08-4.91-9.82-8.27-14.08l-9.71,9.71c1.05,1.43,2.03,2.93,2.91,4.48
		c0.3,0.52,0.58,1.04,0.86,1.57c0.55,1.06,1.06,2.14,1.53,3.25c0.94,2.21,1.71,4.51,2.3,6.88c0.88,3.55,1.35,7.27,1.35,11.1
		c0,1.57-0.09,3.12-0.25,4.65c-10.12,0.54-20.25,0.88-30.39,1.01c-3.04,0.04-6.09,0.06-9.13,0.06c-2.33,0-4.65-0.01-6.98-0.03
		c-0.24,0-0.49,0-0.73,0c-2.61-0.02-5.23-0.07-7.84-0.12c-0.8-0.02-1.59-0.04-2.39-0.06c-1.82-0.04-3.64-0.09-5.47-0.14
		c-0.97-0.03-1.95-0.06-2.92-0.1c-1.66-0.06-3.31-0.12-4.97-0.19c-1.02-0.04-2.04-0.09-3.06-0.13c-1.64-0.07-3.28-0.16-4.93-0.24
		c-0.99-0.05-1.98-0.1-2.98-0.16c-1.77-0.1-3.54-0.21-5.31-0.32c-0.84-0.05-1.69-0.1-2.53-0.16c-0.76-0.05-1.52-0.11-2.27-0.16
		c-0.11-1.29-0.17-2.59-0.17-3.91c0-2.39,0.18-4.73,0.53-7.02c0.47-3.05,1.24-6.01,2.27-8.84c0.78-2.12,1.71-4.17,2.77-6.13
		c2.49-4.58,5.73-8.69,9.56-12.17c7.11-6.46,16.24-10.74,26.31-11.77c1.55-0.16,3.12-0.24,4.71-0.24c2.7,0,5.34,0.23,7.91,0.68
		c2.57,0.45,5.07,1.1,7.47,1.96c1.6,0.57,3.17,1.22,4.69,1.96h0l10.05-10.05c-2.76-1.62-5.67-3.02-8.69-4.18
		c-0.6-0.23-1.21-0.46-1.83-0.67c-1.23-0.43-2.47-0.82-3.74-1.16c-1.89-0.52-3.82-0.95-5.79-1.29c-1.31-0.22-2.63-0.4-3.97-0.54
		c-2.01-0.2-4.04-0.31-6.1-0.31c-4.13,0-8.15,0.42-12.04,1.21c-3.89,0.8-7.64,1.97-11.22,3.48c-0.89,0.38-1.78,0.78-2.65,1.2
		c-9.58,4.62-17.74,11.71-23.65,20.46c-6.44,9.54-10.21,21.04-10.21,33.41c0,0.9,0.02,1.79,0.06,2.68c0,0.05,0.01,0.11,0.01,0.16
		c-0.07-0.01-0.14-0.01-0.2-0.02c-5.57-0.49-11.14-1.05-16.69-1.67c-2.78-0.31-5.56-0.64-8.33-0.98
		c-5.55-0.68-11.09-1.43-16.63-2.24c-0.58-0.09-1.07-0.15-1.5-0.21c-0.14-0.02-0.28-0.04-0.41-0.05c-0.53-0.07-0.97-0.12-1.42-0.16
		c-0.11-0.01-0.22-0.02-0.34-0.03c-0.46-0.04-0.95-0.09-1.55-0.15c-0.42-0.04-0.9-0.09-1.47-0.15c-0.76-0.08-2.25-0.3-3.72-0.6
		c-0.55-0.11-1.1-0.23-1.61-0.36c-0.85-0.22-1.58-0.45-2.02-0.7c-0.81-0.45-1.05-1.15-0.98-1.91c0.01-0.15,0.05-0.31,0.08-0.47
		c0.05-0.2,0.11-0.39,0.19-0.59c0.06-0.16,0.13-0.33,0.21-0.49c0.06-0.13,0.13-0.25,0.2-0.37c0.34-0.61,0.75-1.15,1.07-1.51
		c0.21-0.23,0.39-0.46,0.56-0.68c0.68-0.9,1.09-1.76,1.37-2.72c0.21-0.72,0.35-1.5,0.48-2.39c0.6-4.21,0.36-8.49,0.02-12.71
		c-0.25-3.13-0.44-6.43-0.27-9.65c0.09-1.61,0.27-3.19,0.58-4.72c0.21-1.02,0.47-2.01,0.81-2.97c0.84-2.4,2.11-4.58,4-6.4
		c2.4-2.31,5.4-3.63,8.6-4.65c5.32-1.7,11.18-2.56,15.68-5.82c0.77-0.56,1.48-1.17,2.14-1.83c0.66-0.66,1.27-1.36,1.83-2.1
		c0.84-1.11,1.59-2.31,2.26-3.56c0.67-1.25,1.28-2.56,1.83-3.9c0.37-0.89,0.72-1.8,1.06-2.71c0.68-1.82,1.31-3.66,1.97-5.45
		c2.61-7.16,6.73-14.85,14.08-16.84c0.33-0.09,0.67-0.17,1-0.23c0.11-0.02,0.23-0.04,0.34-0.06c0.22-0.04,0.44-0.08,0.66-0.1
		c0.13-0.02,0.27-0.03,0.41-0.04c0.2-0.02,0.4-0.04,0.61-0.05c0.14-0.01,0.29-0.01,0.43-0.02c0.19-0.01,0.39-0.01,0.58-0.02
		c0.11,0,0.22,0,0.33,0c0.35,0,0.7,0.01,1.06,0.03c0.09,0.01,0.18,0.01,0.27,0.01c0.42,0.03,0.85,0.07,1.27,0.11
		c0.09,0.01,0.18,0.02,0.28,0.03c0.36,0.04,0.71,0.09,1.07,0.14c0.1,0.01,0.21,0.03,0.31,0.04c0.42,0.06,0.85,0.13,1.27,0.2
		c0.09,0.02,0.18,0.03,0.27,0.05c0.39,0.07,0.77,0.13,1.16,0.2c0.49,0.09,0.98,0.18,1.47,0.26c0.05,0.01,0.1,0.02,0.14,0.02
		c0.38,0.07,0.76,0.13,1.14,0.19c0.12,0.02,0.23,0.04,0.35,0.05c0.44,0.07,0.87,0.13,1.31,0.18c0.66,0.08,1.32,0.14,1.98,0.18
		c0.18,0.01,0.36,0.02,0.54,0.03c0.55,0.03,1.09,0.05,1.64,0.05c0.09,0,0.19,0.01,0.28,0.01c0.03,0,0.06,0,0.09,0
		c0.75,0,1.5-0.03,2.25-0.08c0.16-0.01,0.32-0.02,0.48-0.03c0.75-0.06,1.5-0.13,2.24-0.23c0.09-0.01,0.18-0.03,0.27-0.04
		c0.7-0.1,1.4-0.22,2.09-0.36c0.12-0.03,0.25-0.05,0.37-0.07c0.73-0.16,1.45-0.33,2.17-0.53c0.15-0.04,0.31-0.09,0.46-0.13
		c0.73-0.21,1.45-0.44,2.17-0.69c0.05-0.02,0.1-0.04,0.16-0.06c0.68-0.25,1.36-0.52,2.02-0.81c0.13-0.06,0.26-0.11,0.39-0.17
		c0.68-0.3,1.35-0.62,2.01-0.97c0.13-0.07,0.26-0.14,0.4-0.21c0.68-0.36,1.35-0.74,2.01-1.15c0.02-0.01,0.04-0.03,0.06-0.04
		c0.41-0.26,0.82-0.52,1.23-0.79c0.16-0.11,0.33-0.22,0.49-0.34c0.26-0.18,0.53-0.36,0.79-0.54c0.2-0.14,0.39-0.28,0.59-0.42
		c0.23-0.16,0.46-0.33,0.69-0.49c0.24-0.17,0.47-0.34,0.71-0.52c0.27-0.2,0.54-0.4,0.82-0.6c0.32-0.24,0.64-0.47,0.97-0.71
		c0.18-0.13,0.36-0.26,0.54-0.39c0.25-0.18,0.5-0.36,0.76-0.54c0.19-0.13,0.37-0.26,0.56-0.39c0.24-0.17,0.48-0.34,0.72-0.5
		c0.19-0.13,0.39-0.26,0.58-0.39c0.24-0.16,0.47-0.32,0.71-0.47c0.2-0.13,0.4-0.25,0.6-0.37c0.23-0.15,0.47-0.29,0.71-0.43
		c0.2-0.12,0.41-0.23,0.61-0.35c0.23-0.13,0.47-0.26,0.71-0.39c0.21-0.11,0.42-0.21,0.63-0.31c0.24-0.12,0.48-0.23,0.71-0.34
		c0.21-0.1,0.43-0.18,0.64-0.27c0.24-0.1,0.48-0.2,0.73-0.29c0.22-0.08,0.44-0.15,0.66-0.22c0.24-0.08,0.49-0.16,0.74-0.23
		c0.22-0.06,0.45-0.12,0.67-0.17c0.25-0.06,0.5-0.11,0.75-0.16c0.23-0.04,0.46-0.07,0.69-0.11c0.25-0.03,0.51-0.07,0.77-0.09
		c0.23-0.02,0.47-0.03,0.71-0.04c0.37-0.01,0.74-0.03,1.12-0.01c0.9,0.04,1.77,0.17,2.62,0.37c1.27,0.3,2.49,0.77,3.68,1.35
		c4.34,2.12,8.19,5.78,12.26,8.58c0.85,0.58,1.72,1.13,2.61,1.65c1.33,0.78,2.71,1.48,4.12,2.1c3.77,1.66,7.78,2.75,11.87,3.23
		c0.51,0.06,1.02,0.11,1.54,0.15c1.03,0.08,2.05,0.12,3.08,0.12c0.03,0,0.05,0,0.08,0c0.44,0,0.89-0.01,1.33-0.02
		c0.09,0,0.19,0,0.28,0c0.56-0.02,1.11-0.04,1.67-0.07c0.18-0.01,0.35-0.02,0.53-0.03c0.39-0.02,0.78-0.04,1.17-0.07
		c0.31-0.02,0.63-0.04,0.94-0.06c0.4-0.03,0.79-0.05,1.19-0.08c0.4-0.03,0.8-0.05,1.2-0.08c0.22-0.01,0.45-0.03,0.67-0.04
		c0.34-0.02,0.69-0.04,1.03-0.06c0.24-0.01,0.49-0.02,0.73-0.03c0.32-0.01,0.64-0.03,0.96-0.04c0.25-0.01,0.5-0.01,0.75-0.01
		c0.31,0,0.61-0.01,0.92-0.01c0.3,0,0.6,0.01,0.89,0.02c0.27,0.01,0.54,0.01,0.81,0.02c0.3,0.01,0.59,0.04,0.89,0.06
		c0.26,0.02,0.53,0.04,0.79,0.06c0.3,0.03,0.59,0.07,0.88,0.11c0.25,0.03,0.51,0.06,0.76,0.11c0.29,0.05,0.58,0.12,0.87,0.18
		c0.24,0.05,0.49,0.09,0.72,0.15c0.3,0.07,0.59,0.17,0.88,0.26c0.23,0.07,0.45,0.13,0.68,0.2c0.3,0.11,0.6,0.23,0.89,0.36
		c0.2,0.08,0.41,0.16,0.61,0.25c0.33,0.15,0.64,0.33,0.96,0.51c0.16,0.09,0.32,0.16,0.48,0.26c0.47,0.28,0.93,0.6,1.37,0.94
		c1.37,1.06,2.48,2.32,3.41,3.72c0.62,0.93,1.16,1.92,1.65,2.95c2.69,5.67,3.8,12.58,7.64,17.65c0.74,0.98,1.55,1.86,2.44,2.67
		c0.29,0.27,0.59,0.53,0.9,0.78c0.61,0.51,1.25,0.98,1.91,1.43c0.33,0.22,0.66,0.44,1,0.65c0.68,0.42,1.37,0.82,2.08,1.21
		c0.71,0.38,1.43,0.75,2.15,1.09c0.73,0.35,1.46,0.69,2.19,1.01c1.1,0.49,2.2,0.96,3.29,1.43c0.76,0.33,1.51,0.65,2.27,0.98
		c2.27,1,4.51,2.05,6.63,3.32c0.82,0.49,1.8,1.07,2.76,1.73c0.32,0.22,0.64,0.45,0.95,0.69c1.08,0.83,2.05,1.77,2.6,2.81
		c0.08,0.15,0.15,0.3,0.21,0.45c0.18,0.45,0.35,0.91,0.5,1.38c0.74,2.33,1.06,4.83,1.13,7.4c0.05,1.54,0.01,3.1-0.08,4.65
		c-0.12,2.07-0.31,4.14-0.5,6.15c-0.14,1.5-0.27,2.97-0.36,4.38c-0.06,0.97-0.11,1.95-0.15,2.93c-0.05,1.47-0.07,2.94-0.02,4.41
		c0.05,1.47,0.18,2.93,0.4,4.38c0.07,0.46,0.15,0.92,0.25,1.38c0.19,0.91,0.42,1.82,0.71,2.7c0.14,0.44,0.3,0.88,0.48,1.32
		c0.16,0.4,0.34,0.78,0.5,1.14c0.08,0.18,0.16,0.36,0.24,0.53c0.23,0.52,0.4,1,0.44,1.46C330.34,196.01,330.34,196.01,330.34,196.02
		z"/>
</g>
<g id="dumpling-detail">
	<polygon class="st1" points="209.31,102.19 209.31,130.48 209.31,130.48 219.95,130.48 219.95,102.19 219.95,102.19 	"/>
	<polygon class="st1" points="278.94,126.64 271.43,119.11 251.4,139.1 258.91,146.63 278.94,126.64 278.94,126.64 	"/>
	<polygon class="st1" points="173.51,138.55 173.51,138.55 153.48,118.55 145.97,126.08 166,146.07 166,146.07 166,146.07 
		166.01,146.06 173.51,138.55 	"/>
	<polygon class="st1" points="308.92,169 306.5,158.64 278.94,165.08 281.36,175.44 308.92,169 308.92,169 	"/>
	<polygon class="st1" points="145.97,165.08 145.97,165.08 118.42,158.64 115.99,169 143.55,175.44 143.55,175.44 143.55,175.44 
		145.4,167.5 145.97,165.08 	"/>
</g>
</svg>
